<svg xmlns="http://www.w3.org/2000/svg" xmlns:xlink="http://www.w3.org/1999/xlink" contentStyleType="text/css" data-diagram-type="CLASS" height="1337px" preserveAspectRatio="none" style="width:1084px;height:1337px;background:#FFFFFF;" version="1.1" viewBox="0 0 1084 1337" width="1084px" zoomAndPan="magnify"><title>Logical View diagram for the Healthcare Administration Platform (HAP)</title><defs/><g><g class="title" data-source-line="2"><text fill="#000000" font-family="sans-serif" font-size="14" font-weight="bold" lengthAdjust="spacing" textLength="472.2042" x="298.8979" y="23.0059">Logical View diagram for the Healthcare Administration Platform (HAP)</text></g><!--cluster Patient Service--><g class="cluster" data-entity="Patient Service" data-source-line="4" data-uid="ent0002" id="cluster_Patient Service"><path d="M8.5,612.1999 L109.8796,612.1999 A3.75,3.75 0 0 1 112.3796,614.6999 L119.3796,634.9999 L233.5,634.9999 A2.5,2.5 0 0 1 236,637.4999 L236,1135.8999 A2.5,2.5 0 0 1 233.5,1138.3999 L8.5,1138.3999 A2.5,2.5 0 0 1 6,1135.8999 L6,614.6999 A2.5,2.5 0 0 1 8.5,612.1999" fill="none" style="stroke:#000000;stroke-width:1.5;"/><line style="stroke:#000000;stroke-width:1.5;" x1="6" x2="119.3796" y1="634.9999" y2="634.9999"/><text fill="#000000" font-family="sans-serif" font-size="14" font-weight="bold" lengthAdjust="spacing" textLength="100.3796" x="10" y="627.2059">Patient Service</text></g><!--cluster Physician Service--><g class="cluster" data-entity="Physician Service" data-source-line="29" data-uid="ent0005" id="cluster_Physician Service"><path d="M425.5,595.3999 L545.5695,595.3999 A3.75,3.75 0 0 1 548.0695,597.8999 L555.0695,618.1999 L646.5,618.1999 A2.5,2.5 0 0 1 649,620.6999 L649,910.2999 A2.5,2.5 0 0 1 646.5,912.7999 L425.5,912.7999 A2.5,2.5 0 0 1 423,910.2999 L423,597.8999 A2.5,2.5 0 0 1 425.5,595.3999" fill="none" style="stroke:#000000;stroke-width:1.5;"/><line style="stroke:#000000;stroke-width:1.5;" x1="423" x2="555.0695" y1="618.1999" y2="618.1999"/><text fill="#000000" font-family="sans-serif" font-size="14" font-weight="bold" lengthAdjust="spacing" textLength="119.0695" x="427" y="610.4059">Physician Service</text></g><!--cluster Appointment Service--><g class="cluster" data-entity="Appointment Service" data-source-line="47" data-uid="ent0007" id="cluster_Appointment Service"><path d="M262.5,938.5999 L403.5275,938.5999 A3.75,3.75 0 0 1 406.0275,941.0999 L413.0275,961.3999 L1074.5,961.3999 A2.5,2.5 0 0 1 1077,963.8999 L1077,1327.8999 A2.5,2.5 0 0 1 1074.5,1330.3999 L262.5,1330.3999 A2.5,2.5 0 0 1 260,1327.8999 L260,941.0999 A2.5,2.5 0 0 1 262.5,938.5999" fill="none" style="stroke:#000000;stroke-width:1.5;"/><line style="stroke:#000000;stroke-width:1.5;" x1="260" x2="413.0275" y1="961.3999" y2="961.3999"/><text fill="#000000" font-family="sans-serif" font-size="14" font-weight="bold" lengthAdjust="spacing" textLength="140.0275" x="264" y="953.6059">Appointment Service</text></g><!--class Patient--><g class="entity" data-entity="Patient" data-source-line="5" data-uid="ent0003" id="entity_Patient"><rect fill="#F1F1F1" height="232.7992" rx="2.5" ry="2.5" style="stroke:#181818;stroke-width:0.5;" width="197.1773" x="22.41" y="647.1999"/><ellipse cx="94.9577" cy="663.1999" fill="#ADD1B2" rx="11" ry="11" style="stroke:#181818;stroke-width:1;"/><path d="M89.9577,664.3562 C89.9577,666.8562 92.0984,668.6687 95.0202,668.6687 C96.2546,668.6687 97.4265,668.3718 98.1765,667.8562 C98.7859,667.4343 99.114,667.0124 99.114,666.6062 C99.114,666.1374 98.6921,665.7312 98.1921,665.7312 C97.9577,665.7312 97.739,665.8093 97.5359,666.0124 C97.0984,666.4499 97.0984,666.4499 96.9265,666.5437 C96.4734,666.7781 95.8327,666.9187 95.0671,666.9187 C93.0671,666.9187 91.7859,665.9031 91.7859,664.3249 L91.7859,663.2781 C91.7859,661.5749 93.0046,660.3718 94.7077,660.3718 C95.2859,660.3718 95.864,660.5124 96.3327,660.7624 C96.8015,661.0281 96.9734,661.2156 97.0359,661.5749 C97.1609,662.2468 97.4109,662.4968 97.9421,662.4968 C98.2234,662.4968 98.5046,662.3562 98.6921,662.1374 C98.8171,661.9656 98.864,661.7937 98.864,661.3562 L98.864,659.9968 C98.864,659.5749 98.8484,659.4343 98.7234,659.2624 C98.5515,659.0124 98.2702,658.8562 97.9421,658.8562 C97.6296,658.8562 97.4265,658.9656 97.2077,659.2312 C96.0359,658.7312 95.5984,658.6218 94.6452,658.6218 C91.9734,658.6218 89.9577,660.6374 89.9577,663.2624 L89.9577,664.3562 Z " fill="#000000"/><text fill="#000000" font-family="sans-serif" font-size="14" lengthAdjust="spacing" textLength="43.5818" x="115.4577" y="667.8059">Patient</text><line style="stroke:#181818;stroke-width:0.5;" x1="23.41" x2="218.5873" y1="679.1999" y2="679.1999"/><rect fill="none" height="6" style="stroke:#C82930;stroke-width:1;" width="6" x="30.41" y="690.0999"/><text fill="#000000" font-family="sans-serif" font-size="14" lengthAdjust="spacing" textLength="45.9198" x="42.41" y="696.2059">Long id</text><rect fill="none" height="6" style="stroke:#C82930;stroke-width:1;" width="6" x="30.41" y="706.8998"/><text fill="#000000" font-family="sans-serif" font-size="14" lengthAdjust="spacing" textLength="132.2715" x="42.41" y="713.0058">String patientNumber</text><rect fill="none" height="6" style="stroke:#C82930;stroke-width:1;" width="6" x="30.41" y="723.6997"/><text fill="#000000" font-family="sans-serif" font-size="14" lengthAdjust="spacing" textLength="125.2575" x="42.41" y="729.8057">String emailAddress</text><rect fill="none" height="6" style="stroke:#C82930;stroke-width:1;" width="6" x="30.41" y="740.4997"/><text fill="#000000" font-family="sans-serif" font-size="14" lengthAdjust="spacing" textLength="60.6758" x="42.41" y="746.6057">User user</text><rect fill="none" height="6" style="stroke:#C82930;stroke-width:1;" width="6" x="30.41" y="757.2996"/><text fill="#000000" font-family="sans-serif" font-size="14" lengthAdjust="spacing" textLength="75.4737" x="42.41" y="763.4056">String name</text><rect fill="none" height="6" style="stroke:#C82930;stroke-width:1;" width="6" x="30.41" y="774.0995"/><text fill="#000000" font-family="sans-serif" font-size="14" lengthAdjust="spacing" textLength="111.2715" x="42.41" y="780.2055">String dateOfBirth</text><rect fill="none" height="6" style="stroke:#C82930;stroke-width:1;" width="6" x="30.41" y="790.8995"/><text fill="#000000" font-family="sans-serif" font-size="14" lengthAdjust="spacing" textLength="129.1635" x="42.41" y="797.0054">String phoneNumber</text><rect fill="none" height="6" style="stroke:#C82930;stroke-width:1;" width="6" x="30.41" y="807.6994"/><text fill="#000000" font-family="sans-serif" font-size="14" lengthAdjust="spacing" textLength="90.2576" x="42.41" y="813.8054">String address</text><rect fill="none" height="6" style="stroke:#C82930;stroke-width:1;" width="6" x="30.41" y="824.4993"/><text fill="#000000" font-family="sans-serif" font-size="14" lengthAdjust="spacing" textLength="103.5155" x="42.41" y="830.6053">boolean enabled</text><rect fill="none" height="6" style="stroke:#C82930;stroke-width:1;" width="6" x="30.41" y="841.2992"/><text fill="#000000" font-family="sans-serif" font-size="14" lengthAdjust="spacing" textLength="171.1773" x="42.41" y="847.4052">String insuranceInformation</text><rect fill="none" height="6" style="stroke:#C82930;stroke-width:1;" width="6" x="30.41" y="858.0992"/><text fill="#000000" font-family="sans-serif" font-size="14" lengthAdjust="spacing" textLength="119.8395" x="42.41" y="864.2051">String dataConsent</text><line style="stroke:#181818;stroke-width:0.5;" x1="23.41" x2="218.5873" y1="871.9991" y2="871.9991"/></g><!--class HealthConcerns--><g class="entity" data-entity="HealthConcerns" data-source-line="18" data-uid="ent0004" id="entity_HealthConcerns"><rect fill="#F1F1F1" height="165.5995" rx="2.5" ry="2.5" style="stroke:#181818;stroke-width:0.5;" width="182.4073" x="29.8" y="956.7999"/><ellipse cx="67.3188" cy="972.7999" fill="#ADD1B2" rx="11" ry="11" style="stroke:#181818;stroke-width:1;"/><path d="M62.3188,973.9562 C62.3188,976.4562 64.4594,978.2687 67.3813,978.2687 C68.6157,978.2687 69.7875,977.9718 70.5375,977.4562 C71.1469,977.0343 71.475,976.6124 71.475,976.2062 C71.475,975.7374 71.0532,975.3312 70.5532,975.3312 C70.3188,975.3312 70.1,975.4093 69.8969,975.6124 C69.4594,976.0499 69.4594,976.0499 69.2875,976.1437 C68.8344,976.3781 68.1938,976.5187 67.4282,976.5187 C65.4282,976.5187 64.1469,975.5031 64.1469,973.9249 L64.1469,972.8781 C64.1469,971.1749 65.3657,969.9718 67.0688,969.9718 C67.6469,969.9718 68.225,970.1124 68.6938,970.3624 C69.1625,970.6281 69.3344,970.8156 69.3969,971.1749 C69.5219,971.8468 69.7719,972.0968 70.3032,972.0968 C70.5844,972.0968 70.8657,971.9562 71.0532,971.7374 C71.1782,971.5656 71.225,971.3937 71.225,970.9562 L71.225,969.5968 C71.225,969.1749 71.2094,969.0343 71.0844,968.8624 C70.9125,968.6124 70.6313,968.4562 70.3032,968.4562 C69.9907,968.4562 69.7875,968.5656 69.5688,968.8312 C68.3969,968.3312 67.9594,968.2218 67.0063,968.2218 C64.3344,968.2218 62.3188,970.2374 62.3188,972.8624 L62.3188,973.9562 Z " fill="#000000"/><text fill="#000000" font-family="sans-serif" font-size="14" lengthAdjust="spacing" textLength="100.3656" x="86.323" y="977.4059">HealthConcerns</text><line style="stroke:#181818;stroke-width:0.5;" x1="30.8" x2="211.2073" y1="988.7999" y2="988.7999"/><rect fill="none" height="6" style="stroke:#C82930;stroke-width:1;" width="6" x="37.8" y="999.6999"/><text fill="#000000" font-family="sans-serif" font-size="14" lengthAdjust="spacing" textLength="49.8118" x="49.8" y="1005.8059">Long id;</text><rect fill="none" height="6" style="stroke:#C82930;stroke-width:1;" width="6" x="37.8" y="1016.4998"/><text fill="#000000" font-family="sans-serif" font-size="14" lengthAdjust="spacing" textLength="112.0415" x="49.8" y="1022.6058">String description;</text><rect fill="none" height="6" style="stroke:#C82930;stroke-width:1;" width="6" x="37.8" y="1033.2997"/><text fill="#000000" font-family="sans-serif" font-size="14" lengthAdjust="spacing" textLength="154.8673" x="49.8" y="1039.4057">LocalDate dateIdentified;</text><rect fill="none" height="6" style="stroke:#C82930;stroke-width:1;" width="6" x="37.8" y="1050.0997"/><text fill="#000000" font-family="sans-serif" font-size="14" lengthAdjust="spacing" textLength="103.4876" x="49.8" y="1056.2057">String treatment;</text><rect fill="none" height="6" style="stroke:#C82930;stroke-width:1;" width="6" x="37.8" y="1066.8996"/><text fill="#000000" font-family="sans-serif" font-size="14" lengthAdjust="spacing" textLength="130.7314" x="49.8" y="1073.0056">boolean stillOngoing;</text><rect fill="none" height="6" style="stroke:#C82930;stroke-width:1;" width="6" x="37.8" y="1083.6995"/><text fill="#000000" font-family="sans-serif" font-size="14" lengthAdjust="spacing" textLength="156.4073" x="49.8" y="1089.8055">LocalDate dateResolved;</text><rect fill="none" height="6" style="stroke:#C82930;stroke-width:1;" width="6" x="37.8" y="1100.4995"/><text fill="#000000" font-family="sans-serif" font-size="14" lengthAdjust="spacing" textLength="93.3936" x="49.8" y="1106.6054">Patient patient;</text><line style="stroke:#181818;stroke-width:0.5;" x1="30.8" x2="211.2073" y1="1114.3994" y2="1114.3994"/></g><!--class Physician--><g class="entity" data-entity="Physician" data-source-line="30" data-uid="ent0006" id="entity_Physician"><rect fill="#F1F1F1" height="266.399" rx="2.5" ry="2.5" style="stroke:#181818;stroke-width:0.5;" width="194.8253" x="438.59" y="630.3999"/><ellipse cx="501.7998" cy="646.3999" fill="#ADD1B2" rx="11" ry="11" style="stroke:#181818;stroke-width:1;"/><path d="M496.7998,647.5562 C496.7998,650.0562 498.9404,651.8687 501.8623,651.8687 C503.0967,651.8687 504.2685,651.5718 505.0185,651.0562 C505.6279,650.6343 505.956,650.2124 505.956,649.8062 C505.956,649.3374 505.5342,648.9312 505.0342,648.9312 C504.7998,648.9312 504.581,649.0093 504.3779,649.2124 C503.9404,649.6499 503.9404,649.6499 503.7685,649.7437 C503.3154,649.9781 502.6748,650.1187 501.9092,650.1187 C499.9092,650.1187 498.6279,649.1031 498.6279,647.5249 L498.6279,646.4781 C498.6279,644.7749 499.8467,643.5718 501.5498,643.5718 C502.1279,643.5718 502.706,643.7124 503.1748,643.9624 C503.6435,644.2281 503.8154,644.4156 503.8779,644.7749 C504.0029,645.4468 504.2529,645.6968 504.7842,645.6968 C505.0654,645.6968 505.3467,645.5562 505.5342,645.3374 C505.6592,645.1656 505.706,644.9937 505.706,644.5562 L505.706,643.1968 C505.706,642.7749 505.6904,642.6343 505.5654,642.4624 C505.3935,642.2124 505.1123,642.0562 504.7842,642.0562 C504.4717,642.0562 504.2685,642.1656 504.0498,642.4312 C502.8779,641.9312 502.4404,641.8218 501.4873,641.8218 C498.8154,641.8218 496.7998,643.8374 496.7998,646.4624 L496.7998,647.5562 Z " fill="#000000"/><text fill="#000000" font-family="sans-serif" font-size="14" lengthAdjust="spacing" textLength="59.9057" x="522.2998" y="651.0059">Physician</text><line style="stroke:#181818;stroke-width:0.5;" x1="439.59" x2="632.4153" y1="662.3999" y2="662.3999"/><rect fill="none" height="6" style="stroke:#C82930;stroke-width:1;" width="6" x="446.59" y="673.2999"/><text fill="#000000" font-family="sans-serif" font-size="14" lengthAdjust="spacing" textLength="45.9198" x="458.59" y="679.4059">Long id</text><rect fill="none" height="6" style="stroke:#C82930;stroke-width:1;" width="6" x="446.59" y="690.0998"/><text fill="#000000" font-family="sans-serif" font-size="14" lengthAdjust="spacing" textLength="75.4737" x="458.59" y="696.2058">String name</text><rect fill="none" height="6" style="stroke:#C82930;stroke-width:1;" width="6" x="446.59" y="706.8997"/><text fill="#000000" font-family="sans-serif" font-size="14" lengthAdjust="spacing" textLength="90.2576" x="458.59" y="713.0057">String address</text><rect fill="none" height="6" style="stroke:#C82930;stroke-width:1;" width="6" x="446.59" y="723.6997"/><text fill="#000000" font-family="sans-serif" font-size="14" lengthAdjust="spacing" textLength="148.5954" x="458.59" y="729.8057">String physicianNumber</text><rect fill="none" height="6" style="stroke:#C82930;stroke-width:1;" width="6" x="446.59" y="740.4996"/><text fill="#000000" font-family="sans-serif" font-size="14" lengthAdjust="spacing" textLength="60.6758" x="458.59" y="746.6056">User user</text><rect fill="none" height="6" style="stroke:#C82930;stroke-width:1;" width="6" x="446.59" y="757.2995"/><text fill="#000000" font-family="sans-serif" font-size="14" lengthAdjust="spacing" textLength="129.1635" x="458.59" y="763.4055">String phoneNumber</text><rect fill="none" height="6" style="stroke:#C82930;stroke-width:1;" width="6" x="446.59" y="774.0995"/><text fill="#000000" font-family="sans-serif" font-size="14" lengthAdjust="spacing" textLength="125.2575" x="458.59" y="780.2054">String emailAddress</text><rect fill="none" height="6" style="stroke:#C82930;stroke-width:1;" width="6" x="446.59" y="790.8994"/><text fill="#000000" font-family="sans-serif" font-size="14" lengthAdjust="spacing" textLength="103.5155" x="458.59" y="797.0054">boolean enabled</text><rect fill="none" height="6" style="stroke:#C82930;stroke-width:1;" width="6" x="446.59" y="807.6993"/><text fill="#000000" font-family="sans-serif" font-size="14" lengthAdjust="spacing" textLength="111.2715" x="458.59" y="813.8053">String department</text><rect fill="none" height="6" style="stroke:#C82930;stroke-width:1;" width="6" x="446.59" y="824.4992"/><text fill="#000000" font-family="sans-serif" font-size="14" lengthAdjust="spacing" textLength="94.9196" x="458.59" y="830.6052">String specialty</text><rect fill="none" height="6" style="stroke:#C82930;stroke-width:1;" width="6" x="446.59" y="841.2992"/><text fill="#000000" font-family="sans-serif" font-size="14" lengthAdjust="spacing" textLength="126.0275" x="458.59" y="847.4051">String workingHours</text><rect fill="none" height="6" style="stroke:#C82930;stroke-width:1;" width="6" x="446.59" y="858.0991"/><text fill="#000000" font-family="sans-serif" font-size="14" lengthAdjust="spacing" textLength="168.8253" x="458.59" y="864.2051">ProfilePicture profilePicture</text><line style="stroke:#181818;stroke-width:0.5;" x1="439.59" x2="632.4153" y1="871.999" y2="871.999"/><ellipse cx="449.59" cy="885.899" fill="#84BE84" rx="3" ry="3" style="stroke:#038048;stroke-width:1;"/><text fill="#000000" font-family="sans-serif" font-size="14" lengthAdjust="spacing" textLength="98.0276" x="458.59" y="889.005">String toString()</text></g><!--class Appointment--><g class="entity" data-entity="Appointment" data-source-line="48" data-uid="ent0008" id="entity_Appointment"><rect fill="#F1F1F1" height="81.5999" rx="2.5" ry="2.5" style="stroke:#181818;stroke-width:0.5;" width="174.5954" x="611.7" y="998.7999"/><ellipse cx="655.4999" cy="1014.7999" fill="#ADD1B2" rx="11" ry="11" style="stroke:#181818;stroke-width:1;"/><path d="M650.4999,1015.9562 C650.4999,1018.4562 652.6405,1020.2687 655.5624,1020.2687 C656.7967,1020.2687 657.9686,1019.9718 658.7186,1019.4562 C659.328,1019.0343 659.6561,1018.6124 659.6561,1018.2062 C659.6561,1017.7374 659.2342,1017.3312 658.7342,1017.3312 C658.4999,1017.3312 658.2811,1017.4093 658.078,1017.6124 C657.6405,1018.0499 657.6405,1018.0499 657.4686,1018.1437 C657.0155,1018.3781 656.3749,1018.5187 655.6092,1018.5187 C653.6092,1018.5187 652.328,1017.5031 652.328,1015.9249 L652.328,1014.8781 C652.328,1013.1749 653.5467,1011.9718 655.2499,1011.9718 C655.828,1011.9718 656.4061,1012.1124 656.8749,1012.3624 C657.3436,1012.6281 657.5155,1012.8156 657.578,1013.1749 C657.703,1013.8468 657.953,1014.0968 658.4842,1014.0968 C658.7655,1014.0968 659.0467,1013.9562 659.2342,1013.7374 C659.3592,1013.5656 659.4061,1013.3937 659.4061,1012.9562 L659.4061,1011.5968 C659.4061,1011.1749 659.3905,1011.0343 659.2655,1010.8624 C659.0936,1010.6124 658.8124,1010.4562 658.4842,1010.4562 C658.1717,1010.4562 657.9686,1010.5656 657.7499,1010.8312 C656.578,1010.3312 656.1405,1010.2218 655.1874,1010.2218 C652.5155,1010.2218 650.4999,1012.2374 650.4999,1014.8624 L650.4999,1015.9562 Z " fill="#000000"/><text fill="#000000" font-family="sans-serif" font-size="14" lengthAdjust="spacing" textLength="78.5957" x="675.8998" y="1019.4059">Appointment</text><line style="stroke:#181818;stroke-width:0.5;" x1="612.7" x2="785.2954" y1="1030.7999" y2="1030.7999"/><rect fill="none" height="6" style="stroke:#C82930;stroke-width:1;" width="6" x="619.7" y="1041.6999"/><text fill="#000000" font-family="sans-serif" font-size="14" lengthAdjust="spacing" textLength="132.2715" x="631.7" y="1047.8059">String patientNumber</text><rect fill="none" height="6" style="stroke:#C82930;stroke-width:1;" width="6" x="619.7" y="1058.4998"/><text fill="#000000" font-family="sans-serif" font-size="14" lengthAdjust="spacing" textLength="148.5954" x="631.7" y="1064.6058">String physicianNumber</text><line style="stroke:#181818;stroke-width:0.5;" x1="612.7" x2="785.2954" y1="1072.3998" y2="1072.3998"/></g><!--class AppointmentDateTime--><g class="entity" data-entity="AppointmentDateTime" data-source-line="52" data-uid="ent0009" id="entity_AppointmentDateTime"><rect fill="#F1F1F1" height="98.3998" rx="2.5" ry="2.5" style="stroke:#181818;stroke-width:0.5;" width="300.6229" x="275.69" y="990.3999"/><ellipse cx="352.1157" cy="1006.3999" fill="#ADD1B2" rx="11" ry="11" style="stroke:#181818;stroke-width:1;"/><path d="M347.1157,1007.5562 C347.1157,1010.0562 349.2563,1011.8687 352.1782,1011.8687 C353.4126,1011.8687 354.5845,1011.5718 355.3345,1011.0562 C355.9438,1010.6343 356.272,1010.2124 356.272,1009.8062 C356.272,1009.3374 355.8501,1008.9312 355.3501,1008.9312 C355.1157,1008.9312 354.897,1009.0093 354.6938,1009.2124 C354.2563,1009.6499 354.2563,1009.6499 354.0845,1009.7437 C353.6313,1009.9781 352.9907,1010.1187 352.2251,1010.1187 C350.2251,1010.1187 348.9438,1009.1031 348.9438,1007.5249 L348.9438,1006.4781 C348.9438,1004.7749 350.1626,1003.5718 351.8657,1003.5718 C352.4438,1003.5718 353.022,1003.7124 353.4907,1003.9624 C353.9595,1004.2281 354.1313,1004.4156 354.1938,1004.7749 C354.3188,1005.4468 354.5688,1005.6968 355.1001,1005.6968 C355.3813,1005.6968 355.6626,1005.5562 355.8501,1005.3374 C355.9751,1005.1656 356.022,1004.9937 356.022,1004.5562 L356.022,1003.1968 C356.022,1002.7749 356.0063,1002.6343 355.8813,1002.4624 C355.7095,1002.2124 355.4282,1002.0562 355.1001,1002.0562 C354.7876,1002.0562 354.5845,1002.1656 354.3657,1002.4312 C353.1938,1001.9312 352.7563,1001.8218 351.8032,1001.8218 C349.1313,1001.8218 347.1157,1003.8374 347.1157,1006.4624 L347.1157,1007.5562 Z " fill="#000000"/><text fill="#000000" font-family="sans-serif" font-size="14" lengthAdjust="spacing" textLength="139.2714" x="372.6157" y="1011.0059">AppointmentDateTime</text><line style="stroke:#181818;stroke-width:0.5;" x1="276.69" x2="575.3129" y1="1022.3999" y2="1022.3999"/><rect fill="none" height="6" style="stroke:#C82930;stroke-width:1;" width="6" x="283.69" y="1033.2999"/><text fill="#000000" font-family="sans-serif" font-size="14" lengthAdjust="spacing" textLength="156.3793" x="295.69" y="1039.4059">LocalDateTime dateTime</text><line style="stroke:#181818;stroke-width:0.5;" x1="276.69" x2="575.3129" y1="1047.1999" y2="1047.1999"/><ellipse cx="286.69" cy="1061.0998" fill="#84BE84" rx="3" ry="3" style="stroke:#038048;stroke-width:1;"/><text fill="#000000" font-family="sans-serif" font-size="14" lengthAdjust="spacing" textLength="274.6229" x="295.69" y="1064.2058">void setDateTime(LocalDateTime dateTime)</text><ellipse cx="286.69" cy="1077.8997" fill="#84BE84" rx="3" ry="3" style="stroke:#038048;stroke-width:1;"/><text fill="#000000" font-family="sans-serif" font-size="14" lengthAdjust="spacing" textLength="112.8115" x="295.69" y="1081.0057">boolean isEmpty()</text></g><!--class AppointmentNumber--><g class="entity" data-entity="AppointmentNumber" data-source-line="57" data-uid="ent0010" id="entity_AppointmentNumber"><rect fill="#F1F1F1" height="98.3998" rx="2.5" ry="2.5" style="stroke:#181818;stroke-width:0.5;" width="182.4073" x="406.8" y="1199.1999"/><ellipse cx="431.7125" cy="1215.1999" fill="#ADD1B2" rx="11" ry="11" style="stroke:#181818;stroke-width:1;"/><path d="M426.7125,1216.3562 C426.7125,1218.8562 428.8532,1220.6687 431.775,1220.6687 C433.0094,1220.6687 434.1813,1220.3718 434.9313,1219.8562 C435.5407,1219.4343 435.8688,1219.0124 435.8688,1218.6062 C435.8688,1218.1374 435.4469,1217.7312 434.9469,1217.7312 C434.7125,1217.7312 434.4938,1217.8093 434.2907,1218.0124 C433.8532,1218.4499 433.8532,1218.4499 433.6813,1218.5437 C433.2282,1218.7781 432.5875,1218.9187 431.8219,1218.9187 C429.8219,1218.9187 428.5407,1217.9031 428.5407,1216.3249 L428.5407,1215.2781 C428.5407,1213.5749 429.7594,1212.3718 431.4625,1212.3718 C432.0407,1212.3718 432.6188,1212.5124 433.0875,1212.7624 C433.5563,1213.0281 433.7282,1213.2156 433.7907,1213.5749 C433.9157,1214.2468 434.1657,1214.4968 434.6969,1214.4968 C434.9782,1214.4968 435.2594,1214.3562 435.4469,1214.1374 C435.5719,1213.9656 435.6188,1213.7937 435.6188,1213.3562 L435.6188,1211.9968 C435.6188,1211.5749 435.6032,1211.4343 435.4782,1211.2624 C435.3063,1211.0124 435.025,1210.8562 434.6969,1210.8562 C434.3844,1210.8562 434.1813,1210.9656 433.9625,1211.2312 C432.7907,1210.7312 432.3532,1210.6218 431.4,1210.6218 C428.7282,1210.6218 426.7125,1212.6374 426.7125,1215.2624 L426.7125,1216.3562 Z " fill="#000000"/><text fill="#000000" font-family="sans-serif" font-size="14" lengthAdjust="spacing" textLength="128.3795" x="447.9153" y="1219.8059">AppointmentNumber</text><line style="stroke:#181818;stroke-width:0.5;" x1="407.8" x2="588.2073" y1="1231.1999" y2="1231.1999"/><rect fill="none" height="6" style="stroke:#C82930;stroke-width:1;" width="6" x="414.8" y="1242.0999"/><text fill="#000000" font-family="sans-serif" font-size="14" lengthAdjust="spacing" textLength="73.9197" x="426.8" y="1248.2059">String value</text><line style="stroke:#181818;stroke-width:0.5;" x1="407.8" x2="588.2073" y1="1255.9999" y2="1255.9999"/><ellipse cx="417.8" cy="1269.8998" fill="#84BE84" rx="3" ry="3" style="stroke:#038048;stroke-width:1;"/><text fill="#000000" font-family="sans-serif" font-size="14" lengthAdjust="spacing" textLength="156.4073" x="426.8" y="1273.0058">boolean equals(Object o)</text><ellipse cx="417.8" cy="1286.6997" fill="#84BE84" rx="3" ry="3" style="stroke:#038048;stroke-width:1;"/><text fill="#000000" font-family="sans-serif" font-size="14" lengthAdjust="spacing" textLength="91.8116" x="426.8" y="1289.8057">int hashCode()</text></g><!--class AppointmentStatus--><g class="entity" data-entity="AppointmentStatus" data-source-line="62" data-uid="ent0011" id="entity_AppointmentStatus"><rect fill="#F1F1F1" height="115.1997" rx="2.5" ry="2.5" style="stroke:#181818;stroke-width:0.5;" width="150.2855" x="623.86" y="1190.7999"/><ellipse cx="638.86" cy="1206.7999" fill="#EB937F" rx="11" ry="11" style="stroke:#181818;stroke-width:1;"/><path d="M637.7194,1207.8624 L639.0319,1207.8624 L639.0319,1207.9093 C639.0319,1208.3156 639.0475,1208.4718 639.1569,1208.6281 C639.3288,1208.8781 639.6256,1209.0499 639.9381,1209.0499 C640.2194,1209.0499 640.5163,1208.9093 640.6881,1208.6906 C640.8131,1208.5031 640.86,1208.3624 640.86,1207.9093 L640.86,1206.0656 C640.86,1205.7374 640.8444,1205.6281 640.7819,1205.4562 C640.6725,1205.1593 640.3131,1204.9093 639.9381,1204.9093 C639.6413,1204.9093 639.3756,1205.0499 639.2038,1205.2687 C639.0631,1205.4562 639.0319,1205.6281 639.0319,1206.0656 L639.0319,1206.1281 L637.7194,1206.1281 L637.7194,1203.9562 L641.5631,1203.9562 L641.5631,1204.7062 C641.5631,1205.0968 641.5944,1205.2843 641.7038,1205.4406 C641.8756,1205.6906 642.1725,1205.8624 642.485,1205.8624 C642.7819,1205.8624 643.0475,1205.7374 643.235,1205.5031 C643.3756,1205.3156 643.4069,1205.1749 643.4069,1204.7062 L643.4069,1202.2062 L635.7038,1202.2062 C635.2506,1202.2062 635.1256,1202.2218 634.9538,1202.3312 C634.6881,1202.5031 634.5163,1202.7687 634.5163,1203.0812 C634.5163,1203.3624 634.6413,1203.6281 634.8913,1203.7999 C635.0788,1203.9249 635.2663,1203.9562 635.7038,1203.9562 L635.8913,1203.9562 L635.8913,1210.0499 L635.7038,1210.0499 C635.2819,1210.0499 635.1256,1210.0812 634.9538,1210.1749 C634.6881,1210.3312 634.5163,1210.6124 634.5163,1210.9093 C634.5163,1211.4874 634.9225,1211.7999 635.7038,1211.7999 L643.7819,1211.7999 L643.7819,1209.2687 C643.7819,1208.8624 643.7506,1208.6906 643.6413,1208.5343 C643.4694,1208.2687 643.1881,1208.1124 642.86,1208.1124 C642.5788,1208.1124 642.2975,1208.2531 642.11,1208.4718 C641.9694,1208.6593 641.9381,1208.8156 641.9381,1209.2687 L641.9381,1210.0499 L637.7194,1210.0499 L637.7194,1207.8624 Z " fill="#000000"/><text fill="#000000" font-family="sans-serif" font-size="14" lengthAdjust="spacing" textLength="118.2855" x="652.86" y="1211.4059">AppointmentStatus</text><line style="stroke:#181818;stroke-width:0.5;" x1="624.86" x2="773.1455" y1="1222.7999" y2="1222.7999"/><text fill="#000000" font-family="sans-serif" font-size="14" lengthAdjust="spacing" textLength="86.3376" x="629.86" y="1239.8059">SCHEDULED</text><text fill="#000000" font-family="sans-serif" font-size="14" lengthAdjust="spacing" textLength="87.1217" x="629.86" y="1256.6058">COMPLETED</text><text fill="#000000" font-family="sans-serif" font-size="14" lengthAdjust="spacing" textLength="84.0137" x="629.86" y="1273.4057">CANCELLED</text><text fill="#000000" font-family="sans-serif" font-size="14" lengthAdjust="spacing" textLength="105.7836" x="629.86" y="1290.2057">RESCHEDULED</text><line style="stroke:#181818;stroke-width:0.5;" x1="624.86" x2="773.1455" y1="1297.9996" y2="1297.9996"/></g><!--class ConsultationType--><g class="entity" data-entity="ConsultationType" data-source-line="68" data-uid="ent0012" id="entity_ConsultationType"><rect fill="#F1F1F1" height="131.9996" rx="2.5" ry="2.5" style="stroke:#181818;stroke-width:0.5;" width="140.9335" x="809.53" y="1182.3999"/><ellipse cx="824.53" cy="1198.3999" fill="#EB937F" rx="11" ry="11" style="stroke:#181818;stroke-width:1;"/><path d="M823.3894,1199.4624 L824.7019,1199.4624 L824.7019,1199.5093 C824.7019,1199.9156 824.7175,1200.0718 824.8269,1200.2281 C824.9988,1200.4781 825.2956,1200.6499 825.6081,1200.6499 C825.8894,1200.6499 826.1863,1200.5093 826.3581,1200.2906 C826.4831,1200.1031 826.53,1199.9624 826.53,1199.5093 L826.53,1197.6656 C826.53,1197.3374 826.5144,1197.2281 826.4519,1197.0562 C826.3425,1196.7593 825.9831,1196.5093 825.6081,1196.5093 C825.3113,1196.5093 825.0456,1196.6499 824.8738,1196.8687 C824.7331,1197.0562 824.7019,1197.2281 824.7019,1197.6656 L824.7019,1197.7281 L823.3894,1197.7281 L823.3894,1195.5562 L827.2331,1195.5562 L827.2331,1196.3062 C827.2331,1196.6968 827.2644,1196.8843 827.3738,1197.0406 C827.5456,1197.2906 827.8425,1197.4624 828.155,1197.4624 C828.4519,1197.4624 828.7175,1197.3374 828.905,1197.1031 C829.0456,1196.9156 829.0769,1196.7749 829.0769,1196.3062 L829.0769,1193.8062 L821.3738,1193.8062 C820.9206,1193.8062 820.7956,1193.8218 820.6238,1193.9312 C820.3581,1194.1031 820.1863,1194.3687 820.1863,1194.6812 C820.1863,1194.9624 820.3113,1195.2281 820.5613,1195.3999 C820.7488,1195.5249 820.9363,1195.5562 821.3738,1195.5562 L821.5613,1195.5562 L821.5613,1201.6499 L821.3738,1201.6499 C820.9519,1201.6499 820.7956,1201.6812 820.6238,1201.7749 C820.3581,1201.9312 820.1863,1202.2124 820.1863,1202.5093 C820.1863,1203.0874 820.5925,1203.3999 821.3738,1203.3999 L829.4519,1203.3999 L829.4519,1200.8687 C829.4519,1200.4624 829.4206,1200.2906 829.3113,1200.1343 C829.1394,1199.8687 828.8581,1199.7124 828.53,1199.7124 C828.2488,1199.7124 827.9675,1199.8531 827.78,1200.0718 C827.6394,1200.2593 827.6081,1200.4156 827.6081,1200.8687 L827.6081,1201.6499 L823.3894,1201.6499 L823.3894,1199.4624 Z " fill="#000000"/><text fill="#000000" font-family="sans-serif" font-size="14" lengthAdjust="spacing" textLength="108.9335" x="838.53" y="1203.0059">ConsultationType</text><line style="stroke:#181818;stroke-width:0.5;" x1="810.53" x2="949.4635" y1="1214.3999" y2="1214.3999"/><text fill="#000000" font-family="sans-serif" font-size="14" lengthAdjust="spacing" textLength="66.9057" x="815.53" y="1231.4059">GENERAL</text><text fill="#000000" font-family="sans-serif" font-size="14" lengthAdjust="spacing" textLength="55.2298" x="815.53" y="1248.2058">DENTAL</text><text fill="#000000" font-family="sans-serif" font-size="14" lengthAdjust="spacing" textLength="74.6757" x="815.53" y="1265.0057">PEDIATRIC</text><text fill="#000000" font-family="sans-serif" font-size="14" lengthAdjust="spacing" textLength="93.3516" x="815.53" y="1281.8057">CARDIOLOGY</text><text fill="#000000" font-family="sans-serif" font-size="14" lengthAdjust="spacing" textLength="108.9056" x="815.53" y="1298.6056">DERMATOLOGY</text><line style="stroke:#181818;stroke-width:0.5;" x1="810.53" x2="949.4635" y1="1306.3996" y2="1306.3996"/></g><!--class AppointmentRecord--><g class="entity" data-entity="AppointmentRecord" data-source-line="76" data-uid="ent0013" id="entity_AppointmentRecord"><rect fill="#F1F1F1" height="131.9996" rx="2.5" ry="2.5" style="stroke:#181818;stroke-width:0.5;" width="239.1911" x="821.4" y="973.5999"/><ellipse cx="874.8868" cy="989.5999" fill="#ADD1B2" rx="11" ry="11" style="stroke:#181818;stroke-width:1;"/><path d="M869.8868,990.7562 C869.8868,993.2562 872.0274,995.0687 874.9493,995.0687 C876.1837,995.0687 877.3556,994.7718 878.1056,994.2562 C878.7149,993.8343 879.0431,993.4124 879.0431,993.0062 C879.0431,992.5374 878.6212,992.1312 878.1212,992.1312 C877.8868,992.1312 877.6681,992.2093 877.4649,992.4124 C877.0274,992.8499 877.0274,992.8499 876.8556,992.9437 C876.4024,993.1781 875.7618,993.3187 874.9962,993.3187 C872.9962,993.3187 871.7149,992.3031 871.7149,990.7249 L871.7149,989.6781 C871.7149,987.9749 872.9337,986.7718 874.6368,986.7718 C875.2149,986.7718 875.7931,986.9124 876.2618,987.1624 C876.7306,987.4281 876.9024,987.6156 876.9649,987.9749 C877.0899,988.6468 877.3399,988.8968 877.8712,988.8968 C878.1524,988.8968 878.4337,988.7562 878.6212,988.5374 C878.7462,988.3656 878.7931,988.1937 878.7931,987.7562 L878.7931,986.3968 C878.7931,985.9749 878.7774,985.8343 878.6524,985.6624 C878.4806,985.4124 878.1993,985.2562 877.8712,985.2562 C877.5587,985.2562 877.3556,985.3656 877.1368,985.6312 C875.9649,985.1312 875.5274,985.0218 874.5743,985.0218 C871.9024,985.0218 869.8868,987.0374 869.8868,989.6624 L869.8868,990.7562 Z " fill="#000000"/><text fill="#000000" font-family="sans-serif" font-size="14" lengthAdjust="spacing" textLength="123.7175" x="895.3868" y="994.2059">AppointmentRecord</text><line style="stroke:#181818;stroke-width:0.5;" x1="822.4" x2="1059.5911" y1="1005.5999" y2="1005.5999"/><rect fill="none" height="6" style="stroke:#C82930;stroke-width:1;" width="6" x="829.4" y="1016.4999"/><text fill="#000000" font-family="sans-serif" font-size="14" lengthAdjust="spacing" textLength="49.8118" x="841.4" y="1022.6059">Long id;</text><rect fill="none" height="6" style="stroke:#C82930;stroke-width:1;" width="6" x="829.4" y="1033.2998"/><text fill="#000000" font-family="sans-serif" font-size="14" lengthAdjust="spacing" textLength="103.4876" x="841.4" y="1039.4058">String diagnosis;</text><rect fill="none" height="6" style="stroke:#C82930;stroke-width:1;" width="6" x="829.4" y="1050.0997"/><text fill="#000000" font-family="sans-serif" font-size="14" lengthAdjust="spacing" textLength="213.1911" x="841.4" y="1056.2057">String treatmentRecommendation;</text><rect fill="none" height="6" style="stroke:#C82930;stroke-width:1;" width="6" x="829.4" y="1066.8997"/><text fill="#000000" font-family="sans-serif" font-size="14" lengthAdjust="spacing" textLength="116.7035" x="841.4" y="1073.0057">String prescription;</text><rect fill="none" height="6" style="stroke:#C82930;stroke-width:1;" width="6" x="829.4" y="1083.6996"/><text fill="#000000" font-family="sans-serif" font-size="14" lengthAdjust="spacing" textLength="128.3795" x="841.4" y="1089.8056">Long recordNumber;</text><line style="stroke:#181818;stroke-width:0.5;" x1="822.4" x2="1059.5911" y1="1097.5996" y2="1097.5996"/></g><!--class User--><g class="entity" data-entity="User" data-source-line="86" data-uid="ent0014" id="entity_User"><rect fill="#F1F1F1" height="333.5988" rx="2.5" ry="2.5" style="stroke:#181818;stroke-width:0.5;" width="274.961" x="190.52" y="236.7999"/><ellipse cx="308.9735" cy="252.7999" fill="#ADD1B2" rx="11" ry="11" style="stroke:#181818;stroke-width:1;"/><path d="M303.9735,253.9562 C303.9735,256.4562 306.1142,258.2687 309.036,258.2687 C310.2704,258.2687 311.4423,257.9718 312.1923,257.4562 C312.8017,257.0343 313.1298,256.6124 313.1298,256.2062 C313.1298,255.7374 312.7079,255.3312 312.2079,255.3312 C311.9735,255.3312 311.7548,255.4093 311.5517,255.6124 C311.1142,256.0499 311.1142,256.0499 310.9423,256.1437 C310.4892,256.3781 309.8485,256.5187 309.0829,256.5187 C307.0829,256.5187 305.8017,255.5031 305.8017,253.9249 L305.8017,252.8781 C305.8017,251.1749 307.0204,249.9718 308.7235,249.9718 C309.3017,249.9718 309.8798,250.1124 310.3485,250.3624 C310.8173,250.6281 310.9892,250.8156 311.0517,251.1749 C311.1767,251.8468 311.4267,252.0968 311.9579,252.0968 C312.2392,252.0968 312.5204,251.9562 312.7079,251.7374 C312.8329,251.5656 312.8798,251.3937 312.8798,250.9562 L312.8798,249.5968 C312.8798,249.1749 312.8642,249.0343 312.7392,248.8624 C312.5673,248.6124 312.286,248.4562 311.9579,248.4562 C311.6454,248.4562 311.4423,248.5656 311.2235,248.8312 C310.0517,248.3312 309.6142,248.2218 308.661,248.2218 C305.9892,248.2218 303.9735,250.2374 303.9735,252.8624 L303.9735,253.9562 Z " fill="#000000"/><text fill="#000000" font-family="sans-serif" font-size="14" lengthAdjust="spacing" textLength="29.5539" x="329.4735" y="257.4059">User</text><line style="stroke:#181818;stroke-width:0.5;" x1="191.52" x2="464.481" y1="268.7999" y2="268.7999"/><rect fill="none" height="6" style="stroke:#C82930;stroke-width:1;" width="6" x="198.52" y="279.6999"/><text fill="#000000" font-family="sans-serif" font-size="14" lengthAdjust="spacing" textLength="201.5011" x="210.52" y="285.8059">static final long serialVersionUID</text><rect fill="none" height="6" style="stroke:#C82930;stroke-width:1;" width="6" x="198.52" y="296.4998"/><text fill="#000000" font-family="sans-serif" font-size="14" lengthAdjust="spacing" textLength="45.9198" x="210.52" y="302.6058">Long id</text><rect fill="none" height="6" style="stroke:#C82930;stroke-width:1;" width="6" x="198.52" y="313.2997"/><text fill="#000000" font-family="sans-serif" font-size="14" lengthAdjust="spacing" textLength="80.1497" x="210.52" y="319.4057">Long version</text><rect fill="none" height="6" style="stroke:#C82930;stroke-width:1;" width="6" x="198.52" y="330.0997"/><text fill="#000000" font-family="sans-serif" font-size="14" lengthAdjust="spacing" textLength="157.9473" x="210.52" y="336.2057">LocalDateTime createdAt</text><rect fill="none" height="6" style="stroke:#C82930;stroke-width:1;" width="6" x="198.52" y="346.8996"/><text fill="#000000" font-family="sans-serif" font-size="14" lengthAdjust="spacing" textLength="164.1633" x="210.52" y="353.0056">LocalDateTime modifiedAt</text><rect fill="none" height="6" style="stroke:#C82930;stroke-width:1;" width="6" x="198.52" y="363.6995"/><text fill="#000000" font-family="sans-serif" font-size="14" lengthAdjust="spacing" textLength="103.4876" x="210.52" y="369.8055">String createdBy</text><rect fill="none" height="6" style="stroke:#C82930;stroke-width:1;" width="6" x="198.52" y="380.4995"/><text fill="#000000" font-family="sans-serif" font-size="14" lengthAdjust="spacing" textLength="109.7036" x="210.52" y="386.6054">String modifiedBy</text><rect fill="none" height="6" style="stroke:#C82930;stroke-width:1;" width="6" x="198.52" y="397.2994"/><text fill="#000000" font-family="sans-serif" font-size="14" lengthAdjust="spacing" textLength="103.5155" x="210.52" y="403.4054">boolean enabled</text><rect fill="none" height="6" style="stroke:#C82930;stroke-width:1;" width="6" x="198.52" y="414.0993"/><text fill="#000000" font-family="sans-serif" font-size="14" lengthAdjust="spacing" textLength="102.7036" x="210.52" y="420.2053">String username</text><rect fill="none" height="6" style="stroke:#C82930;stroke-width:1;" width="6" x="198.52" y="430.8992"/><text fill="#000000" font-family="sans-serif" font-size="14" lengthAdjust="spacing" textLength="100.3656" x="210.52" y="437.0052">String password</text><rect fill="none" height="6" style="stroke:#C82930;stroke-width:1;" width="6" x="198.52" y="447.6992"/><text fill="#000000" font-family="sans-serif" font-size="14" lengthAdjust="spacing" textLength="95.6896" x="210.52" y="453.8051">String fullName</text><rect fill="none" height="6" style="stroke:#C82930;stroke-width:1;" width="6" x="198.52" y="464.4991"/><text fill="#000000" font-family="sans-serif" font-size="14" lengthAdjust="spacing" textLength="164.1913" x="210.52" y="470.6051">final Set&lt;Role&gt; authorities</text><line style="stroke:#181818;stroke-width:0.5;" x1="191.52" x2="464.481" y1="478.399" y2="478.399"/><ellipse cx="201.52" cy="492.299" fill="#84BE84" rx="3" ry="3" style="stroke:#038048;stroke-width:1;"/><text fill="#000000" font-family="sans-serif" font-size="14" lengthAdjust="spacing" textLength="248.961" x="210.52" y="495.405">void setPassword(final String password)</text><ellipse cx="201.52" cy="509.0989" fill="#84BE84" rx="3" ry="3" style="stroke:#038048;stroke-width:1;"/><text fill="#000000" font-family="sans-serif" font-size="14" lengthAdjust="spacing" textLength="173.5013" x="210.52" y="512.2049">void addAuthority(Role role)</text><ellipse cx="201.52" cy="525.8989" fill="#84BE84" rx="3" ry="3" style="stroke:#038048;stroke-width:1;"/><text fill="#000000" font-family="sans-serif" font-size="14" lengthAdjust="spacing" textLength="196.8532" x="210.52" y="529.0048">boolean isAccountNonExpired()</text><ellipse cx="201.52" cy="542.6988" fill="#84BE84" rx="3" ry="3" style="stroke:#038048;stroke-width:1;"/><text fill="#000000" font-family="sans-serif" font-size="14" lengthAdjust="spacing" textLength="194.5292" x="210.52" y="545.8048">boolean isAccountNonLocked()</text><ellipse cx="201.52" cy="559.4987" fill="#84BE84" rx="3" ry="3" style="stroke:#038048;stroke-width:1;"/><text fill="#000000" font-family="sans-serif" font-size="14" lengthAdjust="spacing" textLength="217.0691" x="210.52" y="562.6047">boolean isCredentialsNonExpired()</text></g><!--class Role--><g class="entity" data-entity="Role" data-source-line="106" data-uid="ent0015" id="entity_Role"><rect fill="#F1F1F1" height="131.9996" rx="2.5" ry="2.5" style="stroke:#181818;stroke-width:0.5;" width="227.5011" x="214.25" y="44.7999"/><ellipse cx="309.3586" cy="60.7999" fill="#ADD1B2" rx="11" ry="11" style="stroke:#181818;stroke-width:1;"/><path d="M304.3586,61.9562 C304.3586,64.4562 306.4993,66.2687 309.4211,66.2687 C310.6555,66.2687 311.8274,65.9718 312.5774,65.4562 C313.1868,65.0343 313.5149,64.6124 313.5149,64.2062 C313.5149,63.7374 313.093,63.3312 312.593,63.3312 C312.3586,63.3312 312.1399,63.4093 311.9368,63.6124 C311.4993,64.0499 311.4993,64.0499 311.3274,64.1437 C310.8743,64.3781 310.2336,64.5187 309.468,64.5187 C307.468,64.5187 306.1868,63.5031 306.1868,61.9249 L306.1868,60.8781 C306.1868,59.1749 307.4055,57.9718 309.1086,57.9718 C309.6868,57.9718 310.2649,58.1124 310.7336,58.3624 C311.2024,58.6281 311.3743,58.8156 311.4368,59.1749 C311.5618,59.8468 311.8118,60.0968 312.343,60.0968 C312.6243,60.0968 312.9055,59.9562 313.093,59.7374 C313.218,59.5656 313.2649,59.3937 313.2649,58.9562 L313.2649,57.5968 C313.2649,57.1749 313.2493,57.0343 313.1243,56.8624 C312.9524,56.6124 312.6711,56.4562 312.343,56.4562 C312.0305,56.4562 311.8274,56.5656 311.6086,56.8312 C310.4368,56.3312 309.9993,56.2218 309.0461,56.2218 C306.3743,56.2218 304.3586,58.2374 304.3586,60.8624 L304.3586,61.9562 Z " fill="#000000"/><text fill="#000000" font-family="sans-serif" font-size="14" lengthAdjust="spacing" textLength="28.7839" x="329.8586" y="65.4059">Role</text><line style="stroke:#181818;stroke-width:0.5;" x1="215.25" x2="440.7511" y1="76.7999" y2="76.7999"/><rect fill="none" height="6" style="stroke:#C82930;stroke-width:1;" width="6" x="222.25" y="87.6999"/><text fill="#000000" font-family="sans-serif" font-size="14" lengthAdjust="spacing" textLength="201.5011" x="234.25" y="93.8059">static final long serialVersionUID</text><ellipse cx="225.25" cy="107.4998" fill="none" rx="3" ry="3" style="stroke:#038048;stroke-width:1;"/><text fill="#000000" font-family="sans-serif" font-size="14" lengthAdjust="spacing" textLength="165.7173" x="234.25" y="110.6058">static final String PATIENT</text><ellipse cx="225.25" cy="124.2997" fill="none" rx="3" ry="3" style="stroke:#038048;stroke-width:1;"/><text fill="#000000" font-family="sans-serif" font-size="14" lengthAdjust="spacing" textLength="182.0553" x="234.25" y="127.4057">static final String PHYSICIAN</text><ellipse cx="225.25" cy="141.0997" fill="none" rx="3" ry="3" style="stroke:#038048;stroke-width:1;"/><text fill="#000000" font-family="sans-serif" font-size="14" lengthAdjust="spacing" textLength="151.7034" x="234.25" y="144.2057">static final String ADMIN</text><rect fill="none" height="6" style="stroke:#C82930;stroke-width:1;" width="6" x="222.25" y="154.8996"/><text fill="#000000" font-family="sans-serif" font-size="14" lengthAdjust="spacing" textLength="94.1496" x="234.25" y="161.0056">String authority</text><line style="stroke:#181818;stroke-width:0.5;" x1="215.25" x2="440.7511" y1="168.7996" y2="168.7996"/></g><!--link AppointmentDateTime to Appointment--><g class="link" data-entity-1="AppointmentDateTime" data-entity-2="Appointment" data-source-line="114" data-uid="lnk17" id="link_AppointmentDateTime_Appointment"><path codeLine="114" d="M576.63,1039.5999 C588.26,1039.5999 587.89,1039.5999 599.52,1039.5999" fill="none" id="AppointmentDateTime-to-Appointment" style="stroke:#181818;stroke-width:1;"/><polygon fill="none" points="611.52,1039.5999,605.52,1035.5999,599.52,1039.5999,605.52,1043.5999,611.52,1039.5999" style="stroke:#181818;stroke-width:1;"/></g><!--reverse link Appointment to AppointmentNumber--><g class="link" data-entity-1="Appointment" data-entity-2="AppointmentNumber" data-source-line="115" data-uid="lnk18" id="link_Appointment_AppointmentNumber"><path codeLine="115" d="M651.8865,1089.0752 C619.0265,1122.8852 580.16,1162.8699 545.13,1198.9099" fill="none" id="Appointment-backto-AppointmentNumber" style="stroke:#181818;stroke-width:1;"/><polygon fill="none" points="660.25,1080.4699,653.1998,1081.9847,651.8865,1089.0752,658.9367,1087.5604,660.25,1080.4699" style="stroke:#181818;stroke-width:1;"/></g><!--reverse link Appointment to AppointmentStatus--><g class="link" data-entity-1="Appointment" data-entity-2="AppointmentStatus" data-source-line="116" data-uid="lnk19" id="link_Appointment_AppointmentStatus"><path codeLine="116" d="M699,1092.4699 C699,1123.6899 699,1155.5299 699,1190.4499" fill="none" id="Appointment-backto-AppointmentStatus" style="stroke:#181818;stroke-width:1;"/><polygon fill="none" points="699,1080.4699,695,1086.4699,699,1092.4699,703,1086.4699,699,1080.4699" style="stroke:#181818;stroke-width:1;"/></g><!--reverse link Appointment to ConsultationType--><g class="link" data-entity-1="Appointment" data-entity-2="ConsultationType" data-source-line="117" data-uid="lnk20" id="link_Appointment_ConsultationType"><path codeLine="117" d="M741.8029,1089.5001 C766.9729,1118.2601 793.6,1148.6899 822.78,1182.0199" fill="none" id="Appointment-backto-ConsultationType" style="stroke:#181818;stroke-width:1;"/><polygon fill="none" points="733.9,1080.4699,734.8414,1087.6193,741.8029,1089.5001,740.8615,1082.3507,733.9,1080.4699" style="stroke:#181818;stroke-width:1;"/></g><!--link Appointment to AppointmentRecord--><g class="link" data-entity-1="Appointment" data-entity-2="AppointmentRecord" data-source-line="118" data-uid="lnk21" id="link_Appointment_AppointmentRecord"><path codeLine="118" d="M786.44,1039.5999 C798.01,1039.5999 809.58,1039.5999 821.16,1039.5999" fill="none" id="Appointment-AppointmentRecord" style="stroke:#181818;stroke-width:1;"/></g><!--reverse link Patient to HealthConcerns--><g class="link" data-entity-1="Patient" data-entity-2="HealthConcerns" data-source-line="120" data-uid="lnk22" id="link_Patient_HealthConcerns"><path codeLine="120" d="M121,892.3999 C121,917.9599 121,932.5299 121,956.4299" fill="none" id="Patient-backto-HealthConcerns" style="stroke:#181818;stroke-width:1;"/><polygon fill="none" points="121,880.3999,117,886.3999,121,892.3999,125,886.3999,121,880.3999" style="stroke:#181818;stroke-width:1;"/></g><!--link Role to User--><g class="link" data-entity-1="Role" data-entity-2="User" data-source-line="122" data-uid="lnk24" id="link_Role_User"><path codeLine="122" d="M328,177.0599 C328,195.0699 328,203.4499 328,224.4199" fill="none" id="Role-to-User" style="stroke:#181818;stroke-width:1;"/><polygon fill="none" points="328,236.4199,332,230.4199,328,224.4199,324,230.4199,328,236.4199" style="stroke:#181818;stroke-width:1;"/></g><!--link User to Patient--><g class="link" data-entity-1="User" data-entity-2="Patient" data-source-line="123" data-uid="lnk25" id="link_User_Patient"><path codeLine="123" d="M231.92,570.7599 C217.08,596.4399 202.03,622.4699 188,646.7299" fill="none" id="User-Patient" style="stroke:#181818;stroke-width:1;"/></g><!--link User to Physician--><g class="link" data-entity-1="User" data-entity-2="Physician" data-source-line="124" data-uid="lnk26" id="link_User_Physician"><path codeLine="124" d="M424.54,570.7599 C436.06,590.5899 447.7,610.6299 458.9,629.8999" fill="none" id="User-Physician" style="stroke:#181818;stroke-width:1;"/></g><!--link Physician to Appointment--><g class="link" data-entity-1="Physician" data-entity-2="Appointment" data-source-line="126" data-uid="lnk28" id="link_Physician_Appointment"><path codeLine="126" d="M614.87,897.1899 C636.81,934.0699 659.01,971.3799 675.09,998.4099" fill="none" id="Physician-Appointment" style="stroke:#181818;stroke-width:1;"/></g><!--link Patient to Appointment--><g class="link" data-entity-1="Patient" data-entity-2="Appointment" data-source-line="127" data-uid="lnk30" id="link_Patient_Appointment"><path codeLine="127" d="M220.04,829.3299 C276.99,863.0099 351.27,901.1599 423,920.7999 C459.71,930.8499 559.38,914.7899 594,930.5999 C625.88,945.1599 653.15,974.0599 671.91,998.3099" fill="none" id="Patient-Appointment" style="stroke:#181818;stroke-width:1;"/></g><!--SRC=[bLRRRk8m47qkNs7r2LJb2xfQAILHYKGXubAfZsuoWBUEdRKTkcZLVz_95OSOTfU7Dl6SkSySnp33WSpbdYMKarS6doHbTAzeHdPI4NC0CWFApI6X2eYVPammRHGrJ0eISseGbP7np8yder5Eam-w1t8Veno48MjGHvR0_UyHmL_2gTQabTLdvSz3_s9FM6gTh8rYU9RNu4MHlOCQYY6ZZFjfga1hIxhLe4YXNHg2PZ0yJQc1vUw9ANDmn72G0gv5G0VEtwNaG0K1GTyvE79YGXUAYWGYKHQlAgKp93gLGcFsbV3BAc7T4PGce8HsLVBHOH1qebXUUdliAM3Z0yo_AaAKeZ-sO-2oO1HGao7WqP6kDeppfTXBH5wtlm8j-R5llHs8fjUFJRfVzZmTJfeb3Dqu9wgJ_jDCkKTWsCYk_OtrmGZS6BERCtDbQlywE2daL5KD6Cfq3XWZDwUXw5Eg3_m_auMotSLAxXY7c2McmDNEUwyTxg5hlgmVnXD7V_mynxvNeNKT8dQBR83LfDjRVgC1NsxRvPnjM0QsZsu0Aq7QF9mJF4gM4WsTxjYjC3bhj8rYEinoS-eguWof3jgHz97o0eP6uMT1kHulttz0OeYqtA91Sg0Qzpw5dayGHMQxN1jg2fiMrjDP66pdOT2TJ9SlyJpSs2V-OXhERSmgxEjPpafYAhYfg6jpokrwFuUBSENFk_SWN6oirpWC8d-pYgQMurKGBUVBvpTBP_NYRyvdE6hEsguWaIhjD_kI_jhTmKjDICtqKDJHMcakmuUKNf1aEuZAIQ6LJrM5KZUxPR1oHUgOAwQem_IGAT5-GdPCu8tBIsMKukw-Wj9eUHi5exipVRMFnrfQlzi3cfJXG-gReIYJQSNbjQp9ei4_dQop5bWVNXBH6LUINKMVTzODhJKoZ8tQ5Pml6bITvHhCjnKQ_KveOGvICTptceiUIBj_SMDetAZqpKziD7ArtzWvZKkxHE6V5d9UJpz9P84hA4NuAsSAql4j3DRkmmcPecPvBU9UzanrxQr2-9_sFlHHJQwnlubmMwwAPs_hQ1hvYsi0FtY95bOVsbgVoaXj1fRUt7FHvWN86_BOBKHDEmF49LVq0DvmdKUZzeEWrEv_wen6rIP9R-jLHQzVlQ3xYB0EsbkZdtgfUHOD98sLFm00]--></g></svg>