<svg xmlns="http://www.w3.org/2000/svg" xmlns:xlink="http://www.w3.org/1999/xlink" contentStyleType="text/css" data-diagram-type="CLASS" height="849px" preserveAspectRatio="none" style="width:792px;height:849px;background:#FFFFFF;" version="1.1" viewBox="0 0 792 849" width="792px" zoomAndPan="magnify"><defs/><g><!--cluster Patient Service--><g class="cluster" data-entity="Patient Service" data-source-line="4" data-uid="ent0002" id="cluster_Patient Service"><path d="M426.5,126 L527.8796,126 A3.75,3.75 0 0 1 530.3796,128.5 L537.3796,148.7999 L563.5,148.7999 A2.5,2.5 0 0 1 566,151.2999 L566,348.9 A2.5,2.5 0 0 1 563.5,351.4 L426.5,351.4 A2.5,2.5 0 0 1 424,348.9 L424,128.5 A2.5,2.5 0 0 1 426.5,126" fill="none" style="stroke:#000000;stroke-width:1.5;"/><line style="stroke:#000000;stroke-width:1.5;" x1="424" x2="537.3796" y1="148.7999" y2="148.7999"/><text fill="#000000" font-family="sans-serif" font-size="14" font-weight="bold" lengthAdjust="spacing" textLength="100.3796" x="428" y="141.0059">Patient Service</text></g><!--cluster Physician Service--><g class="cluster" data-entity="Physician Service" data-source-line="17" data-uid="ent0004" id="cluster_Physician Service"><path d="M8.5,134.4 L128.5695,134.4 A3.75,3.75 0 0 1 131.0695,136.9 L138.0695,157.1999 L361.5,157.1999 A2.5,2.5 0 0 1 364,159.6999 L364,605.7 A2.5,2.5 0 0 1 361.5,608.2 L8.5,608.2 A2.5,2.5 0 0 1 6,605.7 L6,136.9 A2.5,2.5 0 0 1 8.5,134.4" fill="none" style="stroke:#000000;stroke-width:1.5;"/><line style="stroke:#000000;stroke-width:1.5;" x1="6" x2="138.0695" y1="157.1999" y2="157.1999"/><text fill="#000000" font-family="sans-serif" font-size="14" font-weight="bold" lengthAdjust="spacing" textLength="119.0695" x="10" y="149.4059">Physician Service</text></g><!--cluster Appointment Service--><g class="cluster" data-entity="Appointment Service" data-source-line="34" data-uid="ent0008" id="cluster_Appointment Service"><path d="M408.5,416.4 L549.5275,416.4 A3.75,3.75 0 0 1 552.0275,418.9 L559.0275,439.1999 L782.5,439.1999 A2.5,2.5 0 0 1 785,441.6999 L785,839.5 A2.5,2.5 0 0 1 782.5,842 L408.5,842 A2.5,2.5 0 0 1 406,839.5 L406,418.9 A2.5,2.5 0 0 1 408.5,416.4" fill="none" style="stroke:#000000;stroke-width:1.5;"/><line style="stroke:#000000;stroke-width:1.5;" x1="406" x2="559.0275" y1="439.1999" y2="439.1999"/><text fill="#000000" font-family="sans-serif" font-size="14" font-weight="bold" lengthAdjust="spacing" textLength="140.0275" x="410" y="431.4059">Appointment Service</text></g><!--class Patient--><g class="entity" data-entity="Patient" data-source-line="5" data-uid="ent0003" id="entity_Patient"><rect fill="#F1F1F1" height="174.3994" rx="2.5" ry="2.5" style="stroke:#181818;stroke-width:0.5;" width="110.0416" x="439.98" y="161"/><ellipse cx="470.4869" cy="177" fill="#ADD1B2" rx="11" ry="11" style="stroke:#181818;stroke-width:1;"/><path d="M469.3463,178.0625 L470.6588,178.0625 L470.6588,178.1094 C470.6588,178.5156 470.6744,178.6719 470.7838,178.8281 C470.9556,179.0781 471.2525,179.25 471.565,179.25 C471.8463,179.25 472.1431,179.1094 472.315,178.8906 C472.44,178.7031 472.4869,178.5625 472.4869,178.1094 L472.4869,176.2656 C472.4869,175.9375 472.4713,175.8281 472.4088,175.6563 C472.2994,175.3594 471.94,175.1094 471.565,175.1094 C471.2681,175.1094 471.0025,175.25 470.8306,175.4688 C470.69,175.6563 470.6588,175.8281 470.6588,176.2656 L470.6588,176.3281 L469.3463,176.3281 L469.3463,174.1563 L473.19,174.1563 L473.19,174.9063 C473.19,175.2969 473.2213,175.4844 473.3306,175.6406 C473.5025,175.8906 473.7994,176.0625 474.1119,176.0625 C474.4088,176.0625 474.6744,175.9375 474.8619,175.7031 C475.0025,175.5156 475.0338,175.375 475.0338,174.9063 L475.0338,172.4063 L467.3306,172.4063 C466.8775,172.4063 466.7525,172.4219 466.5806,172.5313 C466.315,172.7031 466.1431,172.9688 466.1431,173.2813 C466.1431,173.5625 466.2681,173.8281 466.5181,174 C466.7056,174.125 466.8931,174.1563 467.3306,174.1563 L467.5181,174.1563 L467.5181,180.25 L467.3306,180.25 C466.9088,180.25 466.7525,180.2813 466.5806,180.375 C466.315,180.5313 466.1431,180.8125 466.1431,181.1094 C466.1431,181.6875 466.5494,182 467.3306,182 L475.4088,182 L475.4088,179.4688 C475.4088,179.0625 475.3775,178.8906 475.2681,178.7344 C475.0963,178.4688 474.815,178.3125 474.4869,178.3125 C474.2056,178.3125 473.9244,178.4531 473.7369,178.6719 C473.5963,178.8594 473.565,179.0156 473.565,179.4688 L473.565,180.25 L469.3463,180.25 L469.3463,178.0625 Z " fill="#000000"/><text fill="#000000" font-family="sans-serif" font-size="14" lengthAdjust="spacing" textLength="43.5818" x="487.9329" y="181.606">Patient</text><line style="stroke:#181818;stroke-width:0.5;" x1="440.98" x2="549.0216" y1="193" y2="193"/><text fill="#000000" font-family="sans-serif" font-size="14" lengthAdjust="spacing" textLength="10.892" x="445.98" y="210.0059">id</text><text fill="#000000" font-family="sans-serif" font-size="14" lengthAdjust="spacing" textLength="35.0139" x="445.98" y="226.8059">name</text><text fill="#000000" font-family="sans-serif" font-size="14" lengthAdjust="spacing" textLength="62.2437" x="445.98" y="243.6058">username</text><text fill="#000000" font-family="sans-serif" font-size="14" lengthAdjust="spacing" textLength="88.7036" x="445.98" y="260.4057">phoneNumber</text><text fill="#000000" font-family="sans-serif" font-size="14" lengthAdjust="spacing" textLength="70.8117" x="445.98" y="277.2057">dateOfBirth</text><text fill="#000000" font-family="sans-serif" font-size="14" lengthAdjust="spacing" textLength="91.8116" x="445.98" y="294.0056">patientNumber</text><text fill="#000000" font-family="sans-serif" font-size="14" lengthAdjust="spacing" textLength="49.8118" x="445.98" y="310.8055">enabled</text><text fill="#000000" font-family="sans-serif" font-size="14" lengthAdjust="spacing" textLength="98.0416" x="445.98" y="327.6054">healthConcerns</text></g><!--class Physician--><g class="entity" data-entity="Physician" data-source-line="18" data-uid="ent0005" id="entity_Physician"><rect fill="#F1F1F1" height="157.5995" rx="2.5" ry="2.5" style="stroke:#181818;stroke-width:0.5;" width="100.7036" x="224.65" y="169.4"/><ellipse cx="243.609" cy="185.4" fill="#ADD1B2" rx="11" ry="11" style="stroke:#181818;stroke-width:1;"/><path d="M242.4684,186.4625 L243.7809,186.4625 L243.7809,186.5094 C243.7809,186.9156 243.7965,187.0719 243.9059,187.2281 C244.0778,187.4781 244.3747,187.65 244.6872,187.65 C244.9684,187.65 245.2653,187.5094 245.4372,187.2906 C245.5622,187.1031 245.609,186.9625 245.609,186.5094 L245.609,184.6656 C245.609,184.3375 245.5934,184.2281 245.5309,184.0562 C245.4215,183.7594 245.0622,183.5094 244.6872,183.5094 C244.3903,183.5094 244.1247,183.65 243.9528,183.8687 C243.8122,184.0562 243.7809,184.2281 243.7809,184.6656 L243.7809,184.7281 L242.4684,184.7281 L242.4684,182.5562 L246.3122,182.5562 L246.3122,183.3062 C246.3122,183.6969 246.3434,183.8844 246.4528,184.0406 C246.6247,184.2906 246.9215,184.4625 247.234,184.4625 C247.5309,184.4625 247.7965,184.3375 247.984,184.1031 C248.1247,183.9156 248.1559,183.775 248.1559,183.3062 L248.1559,180.8062 L240.4528,180.8062 C239.9997,180.8062 239.8747,180.8219 239.7028,180.9312 C239.4372,181.1031 239.2653,181.3687 239.2653,181.6812 C239.2653,181.9625 239.3903,182.2281 239.6403,182.4 C239.8278,182.525 240.0153,182.5562 240.4528,182.5562 L240.6403,182.5562 L240.6403,188.65 L240.4528,188.65 C240.0309,188.65 239.8747,188.6812 239.7028,188.775 C239.4372,188.9312 239.2653,189.2125 239.2653,189.5094 C239.2653,190.0875 239.6715,190.4 240.4528,190.4 L248.5309,190.4 L248.5309,187.8687 C248.5309,187.4625 248.4997,187.2906 248.3903,187.1344 C248.2184,186.8687 247.9372,186.7125 247.609,186.7125 C247.3278,186.7125 247.0465,186.8531 246.859,187.0719 C246.7184,187.2594 246.6872,187.4156 246.6872,187.8687 L246.6872,188.65 L242.4684,188.65 L242.4684,186.4625 Z " fill="#000000"/><text fill="#000000" font-family="sans-serif" font-size="14" lengthAdjust="spacing" textLength="59.9057" x="258.4888" y="190.006">Physician</text><line style="stroke:#181818;stroke-width:0.5;" x1="225.65" x2="324.3536" y1="201.4" y2="201.4"/><text fill="#000000" font-family="sans-serif" font-size="14" lengthAdjust="spacing" textLength="35.0139" x="230.65" y="218.4059">name</text><text fill="#000000" font-family="sans-serif" font-size="14" lengthAdjust="spacing" textLength="49.7978" x="230.65" y="235.2059">address</text><text fill="#000000" font-family="sans-serif" font-size="14" lengthAdjust="spacing" textLength="88.7036" x="230.65" y="252.0058">phoneNumber</text><text fill="#000000" font-family="sans-serif" font-size="14" lengthAdjust="spacing" textLength="84.7977" x="230.65" y="268.8057">emailAddress</text><text fill="#000000" font-family="sans-serif" font-size="14" lengthAdjust="spacing" textLength="70.8117" x="230.65" y="285.6057">department</text><text fill="#000000" font-family="sans-serif" font-size="14" lengthAdjust="spacing" textLength="54.4598" x="230.65" y="302.4056">specialty</text><text fill="#000000" font-family="sans-serif" font-size="14" lengthAdjust="spacing" textLength="85.5676" x="230.65" y="319.2055">workingHours</text></g><!--class Department--><g class="entity" data-entity="Department" data-source-line="27" data-uid="ent0006" id="entity_Department"><rect fill="#F1F1F1" height="40" rx="2.5" ry="2.5" style="stroke:#181818;stroke-width:0.5;" width="105.1357" x="22.43" y="552.2"/><ellipse cx="37.43" cy="568.2" fill="#ADD1B2" rx="11" ry="11" style="stroke:#181818;stroke-width:1;"/><path d="M36.2894,569.2625 L37.6019,569.2625 L37.6019,569.3094 C37.6019,569.7156 37.6175,569.8719 37.7269,570.0281 C37.8988,570.2781 38.1956,570.45 38.5081,570.45 C38.7894,570.45 39.0863,570.3094 39.2581,570.0906 C39.3831,569.9031 39.43,569.7625 39.43,569.3094 L39.43,567.4656 C39.43,567.1375 39.4144,567.0281 39.3519,566.8563 C39.2425,566.5594 38.8831,566.3094 38.5081,566.3094 C38.2113,566.3094 37.9456,566.45 37.7738,566.6688 C37.6331,566.8563 37.6019,567.0281 37.6019,567.4656 L37.6019,567.5281 L36.2894,567.5281 L36.2894,565.3563 L40.1331,565.3563 L40.1331,566.1063 C40.1331,566.4969 40.1644,566.6844 40.2738,566.8406 C40.4456,567.0906 40.7425,567.2625 41.055,567.2625 C41.3519,567.2625 41.6175,567.1375 41.805,566.9031 C41.9456,566.7156 41.9769,566.575 41.9769,566.1063 L41.9769,563.6063 L34.2738,563.6063 C33.8206,563.6063 33.6956,563.6219 33.5238,563.7313 C33.2581,563.9031 33.0863,564.1688 33.0863,564.4813 C33.0863,564.7625 33.2113,565.0281 33.4613,565.2 C33.6488,565.325 33.8363,565.3563 34.2738,565.3563 L34.4613,565.3563 L34.4613,571.45 L34.2738,571.45 C33.8519,571.45 33.6956,571.4813 33.5238,571.575 C33.2581,571.7313 33.0863,572.0125 33.0863,572.3094 C33.0863,572.8875 33.4925,573.2 34.2738,573.2 L42.3519,573.2 L42.3519,570.6688 C42.3519,570.2625 42.3206,570.0906 42.2113,569.9344 C42.0394,569.6688 41.7581,569.5125 41.43,569.5125 C41.1488,569.5125 40.8675,569.6531 40.68,569.8719 C40.5394,570.0594 40.5081,570.2156 40.5081,570.6688 L40.5081,571.45 L36.2894,571.45 L36.2894,569.2625 Z " fill="#000000"/><text fill="#000000" font-family="sans-serif" font-size="14" lengthAdjust="spacing" textLength="73.1357" x="51.43" y="572.806">Department</text><line style="stroke:#181818;stroke-width:0.5;" x1="23.43" x2="126.5657" y1="584.2" y2="584.2"/></g><!--class Specialization--><g class="entity" data-entity="Specialization" data-source-line="30" data-uid="ent0007" id="entity_Specialization"><rect fill="#F1F1F1" height="40" rx="2.5" ry="2.5" style="stroke:#181818;stroke-width:0.5;" width="118.3656" x="200.82" y="552.2"/><ellipse cx="215.82" cy="568.2" fill="#ADD1B2" rx="11" ry="11" style="stroke:#181818;stroke-width:1;"/><path d="M214.6794,569.2625 L215.9919,569.2625 L215.9919,569.3094 C215.9919,569.7156 216.0075,569.8719 216.1169,570.0281 C216.2888,570.2781 216.5856,570.45 216.8981,570.45 C217.1794,570.45 217.4763,570.3094 217.6481,570.0906 C217.7731,569.9031 217.82,569.7625 217.82,569.3094 L217.82,567.4656 C217.82,567.1375 217.8044,567.0281 217.7419,566.8563 C217.6325,566.5594 217.2731,566.3094 216.8981,566.3094 C216.6013,566.3094 216.3356,566.45 216.1638,566.6688 C216.0231,566.8563 215.9919,567.0281 215.9919,567.4656 L215.9919,567.5281 L214.6794,567.5281 L214.6794,565.3563 L218.5231,565.3563 L218.5231,566.1063 C218.5231,566.4969 218.5544,566.6844 218.6638,566.8406 C218.8356,567.0906 219.1325,567.2625 219.445,567.2625 C219.7419,567.2625 220.0075,567.1375 220.195,566.9031 C220.3356,566.7156 220.3669,566.575 220.3669,566.1063 L220.3669,563.6063 L212.6638,563.6063 C212.2106,563.6063 212.0856,563.6219 211.9138,563.7313 C211.6481,563.9031 211.4763,564.1688 211.4763,564.4813 C211.4763,564.7625 211.6013,565.0281 211.8513,565.2 C212.0388,565.325 212.2263,565.3563 212.6638,565.3563 L212.8513,565.3563 L212.8513,571.45 L212.6638,571.45 C212.2419,571.45 212.0856,571.4813 211.9138,571.575 C211.6481,571.7313 211.4763,572.0125 211.4763,572.3094 C211.4763,572.8875 211.8825,573.2 212.6638,573.2 L220.7419,573.2 L220.7419,570.6688 C220.7419,570.2625 220.7106,570.0906 220.6013,569.9344 C220.4294,569.6688 220.1481,569.5125 219.82,569.5125 C219.5388,569.5125 219.2575,569.6531 219.07,569.8719 C218.9294,570.0594 218.8981,570.2156 218.8981,570.6688 L218.8981,571.45 L214.6794,571.45 L214.6794,569.2625 Z " fill="#000000"/><text fill="#000000" font-family="sans-serif" font-size="14" lengthAdjust="spacing" textLength="86.3656" x="229.82" y="572.806">Specialization</text><line style="stroke:#181818;stroke-width:0.5;" x1="201.82" x2="318.1856" y1="584.2" y2="584.2"/></g><!--class Appointment--><g class="entity" data-entity="Appointment" data-source-line="35" data-uid="ent0009" id="entity_Appointment"><rect fill="#F1F1F1" height="241.5991" rx="2.5" ry="2.5" style="stroke:#181818;stroke-width:0.5;" width="180.8393" x="430.58" y="451.4"/><ellipse cx="477.4518" cy="467.4" fill="#ADD1B2" rx="11" ry="11" style="stroke:#181818;stroke-width:1;"/><path d="M476.3112,468.4625 L477.6237,468.4625 L477.6237,468.5094 C477.6237,468.9156 477.6393,469.0719 477.7487,469.2281 C477.9206,469.4781 478.2174,469.65 478.5299,469.65 C478.8112,469.65 479.1081,469.5094 479.2799,469.2906 C479.4049,469.1031 479.4518,468.9625 479.4518,468.5094 L479.4518,466.6656 C479.4518,466.3375 479.4362,466.2281 479.3737,466.0563 C479.2643,465.7594 478.9049,465.5094 478.5299,465.5094 C478.2331,465.5094 477.9674,465.65 477.7956,465.8688 C477.6549,466.0563 477.6237,466.2281 477.6237,466.6656 L477.6237,466.7281 L476.3112,466.7281 L476.3112,464.5563 L480.1549,464.5563 L480.1549,465.3063 C480.1549,465.6969 480.1862,465.8844 480.2956,466.0406 C480.4674,466.2906 480.7643,466.4625 481.0768,466.4625 C481.3737,466.4625 481.6393,466.3375 481.8268,466.1031 C481.9674,465.9156 481.9987,465.775 481.9987,465.3063 L481.9987,462.8063 L474.2956,462.8063 C473.8424,462.8063 473.7174,462.8219 473.5456,462.9313 C473.2799,463.1031 473.1081,463.3688 473.1081,463.6813 C473.1081,463.9625 473.2331,464.2281 473.4831,464.4 C473.6706,464.525 473.8581,464.5563 474.2956,464.5563 L474.4831,464.5563 L474.4831,470.65 L474.2956,470.65 C473.8737,470.65 473.7174,470.6813 473.5456,470.775 C473.2799,470.9313 473.1081,471.2125 473.1081,471.5094 C473.1081,472.0875 473.5143,472.4 474.2956,472.4 L482.3737,472.4 L482.3737,469.8688 C482.3737,469.4625 482.3424,469.2906 482.2331,469.1344 C482.0612,468.8688 481.7799,468.7125 481.4518,468.7125 C481.1706,468.7125 480.8893,468.8531 480.7018,469.0719 C480.5612,469.2594 480.5299,469.4156 480.5299,469.8688 L480.5299,470.65 L476.3112,470.65 L476.3112,468.4625 Z " fill="#000000"/><text fill="#000000" font-family="sans-serif" font-size="14" lengthAdjust="spacing" textLength="78.5957" x="497.9518" y="472.006">Appointment</text><line style="stroke:#181818;stroke-width:0.5;" x1="431.58" x2="610.4193" y1="483.4" y2="483.4"/><text fill="#000000" font-family="sans-serif" font-size="14" lengthAdjust="spacing" textLength="59.1357" x="436.58" y="500.4059">diagnosis</text><text fill="#000000" font-family="sans-serif" font-size="14" lengthAdjust="spacing" textLength="168.8393" x="436.58" y="517.2059">treatmentRecommendation</text><text fill="#000000" font-family="sans-serif" font-size="14" lengthAdjust="spacing" textLength="72.3517" x="436.58" y="534.0058">prescription</text><text fill="#000000" font-family="sans-serif" font-size="14" lengthAdjust="spacing" textLength="89.4596" x="436.58" y="550.8057">recordNumber</text><text fill="#000000" font-family="sans-serif" font-size="14" lengthAdjust="spacing" textLength="126.8255" x="436.58" y="567.6057">appointmentNumber</text><text fill="#000000" font-family="sans-serif" font-size="14" lengthAdjust="spacing" textLength="137.7174" x="436.58" y="584.4056">appointmentDateTime</text><text fill="#000000" font-family="sans-serif" font-size="14" lengthAdjust="spacing" textLength="105.8255" x="436.58" y="601.2055">consultationType</text><text fill="#000000" font-family="sans-serif" font-size="14" lengthAdjust="spacing" textLength="37.3518" x="436.58" y="618.0054">status</text><text fill="#000000" font-family="sans-serif" font-size="14" lengthAdjust="spacing" textLength="91.8116" x="436.58" y="634.8054">patientNumber</text><text fill="#000000" font-family="sans-serif" font-size="14" lengthAdjust="spacing" textLength="77.0277" x="436.58" y="651.6053">patientEmail</text><text fill="#000000" font-family="sans-serif" font-size="14" lengthAdjust="spacing" textLength="95.6896" x="436.58" y="668.4052">physicianName</text><text fill="#000000" font-family="sans-serif" font-size="14" lengthAdjust="spacing" textLength="108.1355" x="436.58" y="685.2051">physicianNumber</text></g><!--class AppointmentRecord--><g class="entity" data-entity="AppointmentRecord" data-source-line="50" data-uid="ent0010" id="entity_AppointmentRecord"><rect fill="#F1F1F1" height="40" rx="2.5" ry="2.5" style="stroke:#181818;stroke-width:0.5;" width="155.7175" x="422.14" y="786"/><ellipse cx="437.14" cy="802" fill="#ADD1B2" rx="11" ry="11" style="stroke:#181818;stroke-width:1;"/><path d="M435.9994,803.0625 L437.3119,803.0625 L437.3119,803.1094 C437.3119,803.5156 437.3275,803.6719 437.4369,803.8281 C437.6088,804.0781 437.9056,804.25 438.2181,804.25 C438.4994,804.25 438.7963,804.1094 438.9681,803.8906 C439.0931,803.7031 439.14,803.5625 439.14,803.1094 L439.14,801.2656 C439.14,800.9375 439.1244,800.8281 439.0619,800.6563 C438.9525,800.3594 438.5931,800.1094 438.2181,800.1094 C437.9213,800.1094 437.6556,800.25 437.4838,800.4688 C437.3431,800.6563 437.3119,800.8281 437.3119,801.2656 L437.3119,801.3281 L435.9994,801.3281 L435.9994,799.1563 L439.8431,799.1563 L439.8431,799.9063 C439.8431,800.2969 439.8744,800.4844 439.9838,800.6406 C440.1556,800.8906 440.4525,801.0625 440.765,801.0625 C441.0619,801.0625 441.3275,800.9375 441.515,800.7031 C441.6556,800.5156 441.6869,800.375 441.6869,799.9063 L441.6869,797.4063 L433.9838,797.4063 C433.5306,797.4063 433.4056,797.4219 433.2338,797.5313 C432.9681,797.7031 432.7963,797.9688 432.7963,798.2813 C432.7963,798.5625 432.9213,798.8281 433.1713,799 C433.3588,799.125 433.5463,799.1563 433.9838,799.1563 L434.1713,799.1563 L434.1713,805.25 L433.9838,805.25 C433.5619,805.25 433.4056,805.2813 433.2338,805.375 C432.9681,805.5313 432.7963,805.8125 432.7963,806.1094 C432.7963,806.6875 433.2025,807 433.9838,807 L442.0619,807 L442.0619,804.4688 C442.0619,804.0625 442.0306,803.8906 441.9213,803.7344 C441.7494,803.4688 441.4681,803.3125 441.14,803.3125 C440.8588,803.3125 440.5775,803.4531 440.39,803.6719 C440.2494,803.8594 440.2181,804.0156 440.2181,804.4688 L440.2181,805.25 L435.9994,805.25 L435.9994,803.0625 Z " fill="#000000"/><text fill="#000000" font-family="sans-serif" font-size="14" lengthAdjust="spacing" textLength="123.7175" x="451.14" y="806.606">AppointmentRecord</text><line style="stroke:#181818;stroke-width:0.5;" x1="423.14" x2="576.8575" y1="818" y2="818"/></g><!--class AppointmentType--><g class="entity" data-entity="AppointmentType" data-source-line="53" data-uid="ent0011" id="entity_AppointmentType"><rect fill="#F1F1F1" height="40" rx="2.5" ry="2.5" style="stroke:#181818;stroke-width:0.5;" width="141.7175" x="613.14" y="786"/><ellipse cx="628.14" cy="802" fill="#ADD1B2" rx="11" ry="11" style="stroke:#181818;stroke-width:1;"/><path d="M626.9994,803.0625 L628.3119,803.0625 L628.3119,803.1094 C628.3119,803.5156 628.3275,803.6719 628.4369,803.8281 C628.6088,804.0781 628.9056,804.25 629.2181,804.25 C629.4994,804.25 629.7963,804.1094 629.9681,803.8906 C630.0931,803.7031 630.14,803.5625 630.14,803.1094 L630.14,801.2656 C630.14,800.9375 630.1244,800.8281 630.0619,800.6563 C629.9525,800.3594 629.5931,800.1094 629.2181,800.1094 C628.9213,800.1094 628.6556,800.25 628.4838,800.4688 C628.3431,800.6563 628.3119,800.8281 628.3119,801.2656 L628.3119,801.3281 L626.9994,801.3281 L626.9994,799.1563 L630.8431,799.1563 L630.8431,799.9063 C630.8431,800.2969 630.8744,800.4844 630.9838,800.6406 C631.1556,800.8906 631.4525,801.0625 631.765,801.0625 C632.0619,801.0625 632.3275,800.9375 632.515,800.7031 C632.6556,800.5156 632.6869,800.375 632.6869,799.9063 L632.6869,797.4063 L624.9838,797.4063 C624.5306,797.4063 624.4056,797.4219 624.2338,797.5313 C623.9681,797.7031 623.7963,797.9688 623.7963,798.2813 C623.7963,798.5625 623.9213,798.8281 624.1713,799 C624.3588,799.125 624.5463,799.1563 624.9838,799.1563 L625.1713,799.1563 L625.1713,805.25 L624.9838,805.25 C624.5619,805.25 624.4056,805.2813 624.2338,805.375 C623.9681,805.5313 623.7963,805.8125 623.7963,806.1094 C623.7963,806.6875 624.2025,807 624.9838,807 L633.0619,807 L633.0619,804.4688 C633.0619,804.0625 633.0306,803.8906 632.9213,803.7344 C632.7494,803.4688 632.4681,803.3125 632.14,803.3125 C631.8588,803.3125 631.5775,803.4531 631.39,803.6719 C631.2494,803.8594 631.2181,804.0156 631.2181,804.4688 L631.2181,805.25 L626.9994,805.25 L626.9994,803.0625 Z " fill="#000000"/><text fill="#000000" font-family="sans-serif" font-size="14" lengthAdjust="spacing" textLength="109.7175" x="642.14" y="806.606">AppointmentType</text><line style="stroke:#181818;stroke-width:0.5;" x1="614.14" x2="753.8575" y1="818" y2="818"/></g><!--class User--><g class="entity" data-entity="User" data-source-line="57" data-uid="ent0012" id="entity_User"><rect fill="#F1F1F1" height="40" rx="2.5" ry="2.5" style="stroke:#181818;stroke-width:0.5;" width="61.5539" x="361.22" y="7"/><ellipse cx="376.22" cy="23" fill="#ADD1B2" rx="11" ry="11" style="stroke:#181818;stroke-width:1;"/><path d="M375.0794,24.0625 L376.3919,24.0625 L376.3919,24.1094 C376.3919,24.5156 376.4075,24.6719 376.5169,24.8281 C376.6888,25.0781 376.9856,25.25 377.2981,25.25 C377.5794,25.25 377.8763,25.1094 378.0481,24.8906 C378.1731,24.7031 378.22,24.5625 378.22,24.1094 L378.22,22.2656 C378.22,21.9375 378.2044,21.8281 378.1419,21.6563 C378.0325,21.3594 377.6731,21.1094 377.2981,21.1094 C377.0013,21.1094 376.7356,21.25 376.5638,21.4688 C376.4231,21.6563 376.3919,21.8281 376.3919,22.2656 L376.3919,22.3281 L375.0794,22.3281 L375.0794,20.1563 L378.9231,20.1563 L378.9231,20.9063 C378.9231,21.2969 378.9544,21.4844 379.0638,21.6406 C379.2356,21.8906 379.5325,22.0625 379.845,22.0625 C380.1419,22.0625 380.4075,21.9375 380.595,21.7031 C380.7356,21.5156 380.7669,21.375 380.7669,20.9063 L380.7669,18.4063 L373.0638,18.4063 C372.6106,18.4063 372.4856,18.4219 372.3138,18.5313 C372.0481,18.7031 371.8763,18.9688 371.8763,19.2813 C371.8763,19.5625 372.0013,19.8281 372.2513,20 C372.4388,20.125 372.6263,20.1563 373.0638,20.1563 L373.2513,20.1563 L373.2513,26.25 L373.0638,26.25 C372.6419,26.25 372.4856,26.2813 372.3138,26.375 C372.0481,26.5313 371.8763,26.8125 371.8763,27.1094 C371.8763,27.6875 372.2825,28 373.0638,28 L381.1419,28 L381.1419,25.4688 C381.1419,25.0625 381.1106,24.8906 381.0013,24.7344 C380.8294,24.4688 380.5481,24.3125 380.22,24.3125 C379.9388,24.3125 379.6575,24.4531 379.47,24.6719 C379.3294,24.8594 379.2981,25.0156 379.2981,25.4688 L379.2981,26.25 L375.0794,26.25 L375.0794,24.0625 Z " fill="#000000"/><text fill="#000000" font-family="sans-serif" font-size="14" lengthAdjust="spacing" textLength="29.5539" x="390.22" y="27.606">User</text><line style="stroke:#181818;stroke-width:0.5;" x1="362.22" x2="421.7739" y1="39" y2="39"/></g><!--link User to Patient--><g class="link" data-entity-1="User" data-entity-2="Patient" data-source-line="61" data-uid="lnk13" id="link_User_Patient"><path codeLine="61" d="M402.66,47.41 C407.48,56.35 413.16,67.15 418,77 C431.22,103.93 442.4766,128.149 454.6066,155.089" fill="none" id="User-to-Patient" style="stroke:#181818;stroke-width:1;"/><polygon fill="#181818" points="457.07,160.56,457.0223,150.7113,455.0172,156.0008,449.7276,153.9958,457.07,160.56" style="stroke:#181818;stroke-width:1;"/><text fill="#000000" font-family="sans-serif" font-size="13" lengthAdjust="spacing" textLength="70.0831" x="434.47" y="90.077">User can be</text><text fill="#000000" font-family="sans-serif" font-size="13" lengthAdjust="spacing" textLength="41.912" x="452.1695" y="105.677">pacient</text><text fill="#000000" font-family="sans-serif" font-size="13" lengthAdjust="spacing" textLength="7.228" x="397.6157" y="67.0684">1</text><text fill="#000000" font-family="sans-serif" font-size="13" lengthAdjust="spacing" textLength="5.057" x="448.5979" y="149.4867">*</text></g><!--link User to Physician--><g class="link" data-entity-1="User" data-entity-2="Physician" data-source-line="62" data-uid="lnk14" id="link_User_Physician"><path codeLine="62" d="M363.68,47.46 C353.5,55.61 342.66,65.8 335,77 C316.16,104.54 304.3919,132.8976 294.9919,163.3076" fill="none" id="User-to-Physician" style="stroke:#181818;stroke-width:1;"/><polygon fill="#181818" points="293.22,169.04,299.6995,161.6227,294.6966,164.263,292.0563,159.2601,293.22,169.04" style="stroke:#181818;stroke-width:1;"/><text fill="#000000" font-family="sans-serif" font-size="13" lengthAdjust="spacing" textLength="70.0831" x="336" y="90.077">User can be</text><text fill="#000000" font-family="sans-serif" font-size="13" lengthAdjust="spacing" textLength="55.627" x="346.842" y="105.677">Physician</text><text fill="#000000" font-family="sans-serif" font-size="13" lengthAdjust="spacing" textLength="7.228" x="348.1598" y="67.1319">1</text><text fill="#000000" font-family="sans-serif" font-size="13" lengthAdjust="spacing" textLength="5.057" x="289.7209" y="157.8858">*</text></g><!--link Patient to Appointment--><g class="link" data-entity-1="Patient" data-entity-2="Appointment" data-source-line="63" data-uid="lnk15" id="link_Patient_Appointment"><path codeLine="63" d="M501.97,335.49 C504.83,370.98 507.7171,406.7095 510.8171,445.0995" fill="none" id="Patient-to-Appointment" style="stroke:#181818;stroke-width:1;"/><polygon fill="#181818" points="511.3,451.08,514.5626,441.7872,510.8976,446.0962,506.5886,442.4312,511.3,451.08" style="stroke:#181818;stroke-width:1;"/><text fill="#000000" font-family="sans-serif" font-size="13" lengthAdjust="spacing" textLength="179.2052" x="507.44" y="388.477">Pacient places an Appointment</text><text fill="#000000" font-family="sans-serif" font-size="13" lengthAdjust="spacing" textLength="7.228" x="495.2667" y="355.4417">1</text><text fill="#000000" font-family="sans-serif" font-size="13" lengthAdjust="spacing" textLength="5.057" x="505.5203" y="439.9365">*</text></g><!--link Physician to Appointment--><g class="link" data-entity-1="Physician" data-entity-2="Appointment" data-source-line="64" data-uid="lnk16" id="link_Physician_Appointment"><path codeLine="64" d="M325.67,315.53 C355.77,354.93 391.187,401.2925 426.467,447.4625" fill="none" id="Physician-to-Appointment" style="stroke:#181818;stroke-width:1;"/><polygon fill="#181818" points="430.11,452.23,427.8238,442.6502,427.0742,448.2571,421.4672,447.5075,430.11,452.23" style="stroke:#181818;stroke-width:1;"/><text fill="#000000" font-family="sans-serif" font-size="13" lengthAdjust="spacing" textLength="101.8811" x="384.27" y="380.477">Physician attends</text><text fill="#000000" font-family="sans-serif" font-size="13" lengthAdjust="spacing" textLength="79.4821" x="397.2765" y="396.077">Appointments</text><text fill="#000000" font-family="sans-serif" font-size="13" lengthAdjust="spacing" textLength="7.228" x="333.3034" y="321.0628">1</text><text fill="#000000" font-family="sans-serif" font-size="13" lengthAdjust="spacing" textLength="5.057" x="418.2538" y="439.968">*</text></g><!--link Appointment to AppointmentRecord--><g class="link" data-entity-1="Appointment" data-entity-2="AppointmentRecord" data-source-line="65" data-uid="lnk17" id="link_Appointment_AppointmentRecord"><path codeLine="65" d="M462.21,693.14 C458.93,703.08 456.11,713.11 454,723 C450.94,737.34 448.6,742.36 454,756 C458.47,767.28 462.5812,773.3249 471.0112,781.4549" fill="none" id="Appointment-to-AppointmentRecord" style="stroke:#181818;stroke-width:1;"/><polygon fill="#181818" points="475.33,785.62,471.6285,776.4932,471.731,782.1491,466.0751,782.2515,475.33,785.62" style="stroke:#181818;stroke-width:1;"/><text fill="#000000" font-family="sans-serif" font-size="13" lengthAdjust="spacing" textLength="134.4072" x="455" y="736.077">Appointment generates</text><text fill="#000000" font-family="sans-serif" font-size="13" lengthAdjust="spacing" textLength="114.8811" x="466.57" y="751.677">AppointmentRecord</text><text fill="#000000" font-family="sans-serif" font-size="13" lengthAdjust="spacing" textLength="7.228" x="451.4212" y="713.0621">1</text><text fill="#000000" font-family="sans-serif" font-size="13" lengthAdjust="spacing" textLength="7.228" x="460.0889" y="774.5954">1</text></g><!--link Physician to Department--><g class="link" data-entity-1="Physician" data-entity-2="Department" data-source-line="66" data-uid="lnk18" id="link_Physician_Department"><path codeLine="66" d="M224.42,265.2 C178.97,282.51 114.77,314.93 84,367.4 C49.15,426.82 60.7997,507.7239 69.0197,545.9839" fill="none" id="Physician-to-Department" style="stroke:#181818;stroke-width:1;"/><polygon fill="#181818" points="70.28,551.85,72.3003,542.2106,69.2297,546.9615,64.4788,543.891,70.28,551.85" style="stroke:#181818;stroke-width:1;"/><text fill="#000000" font-family="sans-serif" font-size="13" lengthAdjust="spacing" textLength="161.8371" x="85" y="388.477">Physicians has  Department</text><text fill="#000000" font-family="sans-serif" font-size="13" lengthAdjust="spacing" textLength="5.057" x="211.6278" y="263.7164">*</text><text fill="#000000" font-family="sans-serif" font-size="13" lengthAdjust="spacing" textLength="7.228" x="53.9757" y="540.8342">1</text></g><!--link Physician to Specialization--><g class="link" data-entity-1="Physician" data-entity-2="Specialization" data-source-line="67" data-uid="lnk19" id="link_Physician_Specialization"><path codeLine="67" d="M261.42,327.21 C259.58,340.58 257.99,354.36 257,367.4 C251.88,434.97 255.6958,509.5036 258.1458,545.7936" fill="none" id="Physician-to-Specialization" style="stroke:#181818;stroke-width:1;"/><polygon fill="#181818" points="258.55,551.78,261.9347,542.531,258.2132,546.7914,253.9529,543.0699,258.55,551.78" style="stroke:#181818;stroke-width:1;"/><text fill="#000000" font-family="sans-serif" font-size="13" lengthAdjust="spacing" textLength="86.6971" x="258" y="380.477">Physicians has</text><text fill="#000000" font-family="sans-serif" font-size="13" lengthAdjust="spacing" textLength="80.1971" x="263.057" y="396.077">Specialization</text><text fill="#000000" font-family="sans-serif" font-size="13" lengthAdjust="spacing" textLength="5.057" x="254.9903" y="347.0185">*</text><text fill="#000000" font-family="sans-serif" font-size="13" lengthAdjust="spacing" textLength="7.228" x="243.2048" y="540.7436">1</text></g><!--link Appointment to AppointmentType--><g class="link" data-entity-1="Appointment" data-entity-2="AppointmentType" data-source-line="68" data-uid="lnk20" id="link_Appointment_AppointmentType"><path codeLine="68" d="M605.36,693.17 C630.69,729.19 652.1884,759.7722 666.9784,780.8022" fill="none" id="Appointment-to-AppointmentType" style="stroke:#181818;stroke-width:1;"/><polygon fill="#181818" points="670.43,785.71,668.5245,776.0472,667.5537,781.6202,661.9808,780.6493,670.43,785.71" style="stroke:#181818;stroke-width:1;"/><text fill="#000000" font-family="sans-serif" font-size="13" lengthAdjust="spacing" textLength="134.4072" x="649.79" y="736.077">Appointment generates</text><text fill="#000000" font-family="sans-serif" font-size="13" lengthAdjust="spacing" textLength="101.8811" x="667.86" y="751.677">AppointmentType</text><text fill="#000000" font-family="sans-serif" font-size="13" lengthAdjust="spacing" textLength="7.228" x="603.2944" y="713.094">1</text><text fill="#000000" font-family="sans-serif" font-size="13" lengthAdjust="spacing" textLength="7.228" x="658.2376" y="774.3682">1</text></g><!--SRC=[ZLGzJ-Gm4EtzAomtI4WKj5iWSST9Lt6d1JeQhpstiKXiotP02-A_tyJ9sfCGO5rbtpo_Dr_UncZW7QJ6wSYOb-f9xe6Blp8Pi8dVGNWs2iGRutWGCUd0Zy4H78xHvTFA3igFFaAO0Rvn5cxxRWUXO5ec-FFlXmcfgRpHOi44AtSjLAy6P9kQdyugj8aPVcVlj8pc48qoqdvII0c_hUSljGuGuvVfGoTDUxqWQl0of0vz2XGze5MR3WLvSU79sFrlruTZyYIvco8nPOU5aV3TA6TUiLFE5Wgj_jfxP-meiLe_9TGEQ2FtraLJgqa1P6PjGRaEFtGshMt1sbKmVWO6v0QzQ9QiZfz7Rd0XxWqPWt8szctAflS7NmCHiJv-ipKJ-ckO4vdaDFhR-NeUqIenRpjfsJONk3eSmXhofTEP60_uCX16u8nlePKAIvC3tqMMO-9Iy8kBAoxE1IylRiD53YfSsHtmHul5gI4YrYwLxVvuhSG4EshJktGnDkYUFRZ7D25o525nLcs-K2WScHAkJtoSQKH6wKNcKgoqUpFVwprO2BWl2yMHB6XovvCgfmSjo3lRa7-Co1iPEOcU9BPubHy4CSivHPnIUjwXqmeVg8An_m00]--></g></svg>